<svg width="862" height="80" viewBox="0 0 862 80" fill="none" xmlns="http://www.w3.org/2000/svg">
<path d="M53.488 34.056C59.12 31.88 62 27.528 62 22.92C62 14.856 55.024 9.8 44.528 9.8H17.2C0.0479994 9.8 1.52 29 13.488 29C16.624 29 19.952 27.464 19.952 24.072C19.952 21.768 18.096 19.976 15.856 19.976C14.384 19.976 13.168 20.744 12.4 21.896C11.312 23.432 9.904 23.688 9.52 21C8.944 16.968 10.288 11.272 17.2 11.4C20.72 11.4 23.6 14.28 23.6 17.8V53C23.6 56.52 20.72 59.4 17.2 59.4V61H47.6C58.928 61 66.8 55.56 66.8 46.92C66.8 41.096 62.128 35.72 53.488 34.056ZM36.4 14.408C43.056 14.408 49.264 16.392 49.264 23.304C49.264 29.832 44.464 33.16 36.4 33.16V14.408ZM54.064 46.792C54.064 53.64 48.816 56.52 36.4 56.584V36.104C48.176 36.296 54.064 39.944 54.064 46.792ZM97.6335 25.992C92.5775 23.048 87.2655 27.144 83.4895 31.88V25.544L69.0895 27.848L69.3455 29.384C70.8815 29.192 72.2895 30.344 72.2895 31.88V56.2C72.2895 57.992 70.8815 59.4 69.0895 59.4V61H86.6895V59.4C84.8975 59.4 83.4895 57.992 83.4895 56.2V36.68C87.1375 31.56 93.4095 25.864 92.1935 30.408C91.2335 33.736 92.9615 36.424 96.0335 36.424C101.09 36.424 102.05 28.552 97.6335 25.992ZM120.976 25.096C108.304 25.096 102.224 34.184 102.224 43.464C102.224 52.744 108.176 61.704 120.848 61.704C133.456 61.704 139.664 52.616 139.664 43.336C139.664 34.056 133.583 25.096 120.976 25.096ZM120.912 58.504C115.024 58.504 113.424 50.312 113.424 43.08C113.424 35.912 115.088 28.296 120.912 28.296C126.8 28.296 128.464 35.976 128.464 43.208C128.464 50.376 126.8 58.504 120.912 58.504ZM184.259 25.096V26.696C189.635 26.696 190.211 27.592 189.507 29.896L183.107 51.016L174.787 29.896C174.147 28.296 174.787 26.76 177.027 26.696V25.096H159.427V26.696C161.155 26.76 162.883 28.168 163.587 29.896L166.467 37.256L162.307 51.016L153.987 29.896C153.283 28.168 154.243 26.76 155.971 26.696V25.096H138.627V26.696C140.355 26.76 142.083 28.168 142.786 29.896L155.075 61H161.859L167.939 40.968L175.875 61H182.659L192.067 29.896C192.835 27.656 193.603 26.696 197.827 26.696V25.096H184.259ZM219.22 39.24C207.636 34.952 206.74 34.888 206.74 32.584C206.74 27.208 220.948 26.696 218.452 31.88C217.044 34.76 218.452 37.512 221.268 37.832C224.532 38.28 226.644 34.76 225.876 31.56C224.788 26.952 219.028 24.904 212.948 24.968C206.612 25.032 198.804 27.336 198.804 36.232C198.804 41.224 201.748 45 207.636 46.92C213.524 48.84 219.22 50.376 219.22 53.96C219.22 57.032 215.316 58.76 212.18 58.76C208.212 58.76 204.372 57.288 205.908 54.024C207.316 51.144 205.972 48.392 203.092 48.008C199.828 47.624 197.716 51.08 198.548 54.344C199.892 59.72 205.908 62.28 212.116 62.216C219.668 62.088 227.54 58.12 227.54 50.504C227.54 45.832 224.98 41.352 219.22 39.24ZM248.706 25.096C238.082 25.096 230.786 33.864 230.786 43.784C230.786 54.088 238.21 61.704 248.386 61.704C254.658 61.704 260.482 57.48 262.85 50.696L262.274 50.44C260.098 54.408 256.578 55.688 252.994 55.816C246.21 56.072 242.05 50.056 242.05 41.8H263.81C264.066 32.2 257.986 25.096 248.706 25.096ZM242.242 39.24C242.242 32.648 244.994 28.36 248.45 28.36C251.906 28.36 254.658 32.648 254.658 39.24H242.242ZM346.227 59.4C344.435 59.4 343.027 57.992 343.027 56.2V32.328C343.027 30.472 341.939 25.096 335.347 25.096C327.475 25.096 322.227 32.2 322.227 32.2C322.227 28.296 319.283 25.096 314.547 25.096C306.675 25.096 301.427 32.2 301.427 32.2V25.544L287.027 27.848L287.283 29.384C288.819 29.192 290.227 30.344 290.227 31.88V56.2C290.227 57.992 288.819 59.4 287.027 59.4V61H304.627V59.4C302.835 59.4 301.427 57.992 301.427 56.2V35.4C301.683 35.08 304.243 31.304 307.379 31.304C309.491 31.304 311.027 32.776 311.027 34.376V56.2C311.027 57.992 309.619 59.4 307.827 59.4V61H325.427V59.4C323.635 59.4 322.227 57.992 322.227 56.2V35.4C322.483 35.08 325.043 31.304 328.179 31.304C330.291 31.304 331.827 32.776 331.827 34.376V56.2C331.827 57.992 330.419 59.4 328.627 59.4V61H346.227V59.4ZM371.582 25.096V26.696C376.958 26.696 377.534 27.592 376.83 29.896L370.43 48.072L369.022 44.552L362.11 29.896C361.406 28.168 362.366 26.76 364.094 26.696V25.096H346.75V26.696C348.478 26.76 350.142 28.168 350.91 29.896L364.478 61.256C364.03 66.696 359.998 76.296 359.294 71.688C359.23 70.984 359.166 70.408 358.91 69.832C357.95 67.72 355.454 66.76 353.342 67.656C348.926 69.64 350.782 77 356.094 77.832C364.222 79.112 365.694 70.92 370.814 55.88C373.182 48.968 376.19 40.072 379.39 29.896C380.158 27.656 380.926 26.696 385.15 26.696V25.096H371.582ZM861.224 55.752C861.224 52.744 858.792 50.312 855.784 50.312C852.776 50.312 850.344 52.744 850.344 55.752C850.344 58.76 852.776 61.192 855.784 61.192C858.792 61.192 861.224 58.76 861.224 55.752Z" fill="#1D3935"/>
<path d="M472.12 11.976C466.616 11.976 461.688 19.208 459.256 23.432C454.008 32.776 450.232 51.016 450.232 51.016L441.912 29.896C441.272 28.296 441.847 26.824 444.152 26.696V25.096H426.552V26.696C428.152 26.824 429.944 27.976 430.712 29.896L433.592 37.256L429.432 51.016L428.024 47.496L421.112 29.896C420.408 28.168 421.368 26.76 423.096 26.696V25.096H405.752V26.696C407.48 26.76 409.208 28.168 409.911 29.896L422.2 61H428.984L435.064 40.968L443 61H449.784C452.152 53.128 453.944 46.856 455.544 41.928C457.976 34.376 461.432 25.736 465.72 22.536C467.768 20.936 471.16 21.704 472.184 21.704C479.928 21.896 480.184 11.976 472.12 11.976ZM484.706 25.096C474.082 25.096 466.786 33.864 466.786 43.784C466.786 54.088 474.21 61.704 484.386 61.704C490.658 61.704 496.482 57.48 498.85 50.696L498.274 50.44C496.098 54.408 492.578 55.688 488.994 55.816C482.21 56.072 478.05 50.056 478.05 41.8H499.81C500.066 32.2 493.986 25.096 484.706 25.096ZM478.242 39.24C478.242 32.648 480.994 28.36 484.45 28.36C487.906 28.36 490.658 32.648 490.658 39.24H478.242ZM528.907 25.096C522.635 25.096 518.027 29.448 516.427 31.176V7.944L502.027 10.248L502.283 11.784C503.819 11.592 505.227 12.744 505.227 14.28V56.328C505.227 57.864 503.819 59.08 502.283 58.824L502.027 60.424L508.363 59.4C510.027 59.912 517.067 62.472 523.787 61.64C535.307 60.232 538.187 48.776 538.187 41.096C538.187 35.016 535.499 25.096 528.907 25.096ZM520.139 58.632C516.363 58.632 516.427 55.24 516.427 55.24V34.184C517.387 33.032 519.435 31.048 521.739 31.048C530.187 31.048 528.587 58.632 520.139 58.632ZM588.406 25.032C582.198 25.032 577.654 29.192 575.99 31.048V24.2L561.59 26.504L561.846 28.04C563.382 27.848 564.79 29 564.79 30.536V72.456C564.79 74.248 563.382 75.656 561.59 75.656V77.256H579.19V75.656C577.398 75.656 575.99 74.248 575.99 72.456V58.504C577.462 60.168 579.766 61.704 583.286 61.704C594.486 61.704 597.686 48.712 597.686 41.032C597.686 34.888 594.998 25.032 588.406 25.032ZM579.638 57.736C576.758 57.736 576.246 52.232 575.99 51.016V33.992C577.014 32.84 578.998 30.984 581.238 30.984C589.686 30.984 588.086 57.736 579.638 57.736ZM619.788 25.096C607.116 25.096 601.036 34.184 601.036 43.464C601.036 52.744 606.988 61.704 619.66 61.704C632.268 61.704 638.476 52.616 638.476 43.336C638.476 34.056 632.396 25.096 619.788 25.096ZM619.724 58.504C613.836 58.504 612.236 50.312 612.236 43.08C612.236 35.912 613.9 28.296 619.724 28.296C625.612 28.296 627.276 35.976 627.276 43.208C627.276 50.376 625.612 58.504 619.724 58.504ZM690.059 27.656H699.659V25.096H690.059V18.12C690.059 0.519997 660.939 3.016 660.939 17.544C660.939 20.808 662.347 23.624 663.435 25.352C660.363 26.312 657.483 28.936 655.115 31.88V25.544L640.715 27.848L640.971 29.384C642.507 29.192 643.915 30.344 643.915 31.88V56.2C643.915 57.992 642.507 59.4 640.715 59.4V61H658.315V59.4C656.523 59.4 655.115 57.992 655.115 56.2V36.68C658.763 31.56 665.035 25.864 663.819 30.408C662.859 33.736 664.587 36.424 667.659 36.424C670.603 36.424 672.139 33.928 672.075 31.304C672.075 30.216 671.819 29.064 671.243 28.04C669.771 25.48 668.235 26.056 666.763 23.752C665.611 21.96 664.907 19.976 664.907 17.736C664.907 4.552 686.027 4.552 686.027 16.008C686.027 22.088 680.203 25.096 674.059 25.096V27.656H678.859V53.192C678.859 57.864 683.147 61.704 687.947 61.704C694.987 61.704 698.315 56.712 699.659 50.952L699.275 50.824C697.419 54.728 695.307 55.752 693.451 55.752C689.675 55.752 690.059 50.952 690.059 46.728V27.656ZM731.729 12.552C729.873 7.688 718.673 4.552 710.481 9.864C706.961 12.104 705.361 16.136 705.361 21.256V25.096H701.841V27.656H705.361V56.2C705.361 57.992 703.953 59.4 702.161 59.4V61H719.761V59.4C717.969 59.4 716.561 57.992 716.561 56.2V27.656H722.961V25.096H716.561V18.056C716.561 10.696 720.785 10.056 722.705 10.376C724.241 10.632 724.369 12.296 723.857 13.832C723.601 14.536 723.409 15.048 723.409 15.688C723.409 17.992 725.329 19.912 727.633 19.912C731.089 19.912 732.945 15.88 731.729 12.552ZM748.538 25.096C735.866 25.096 729.786 34.184 729.786 43.464C729.786 52.744 735.738 61.704 748.41 61.704C761.018 61.704 767.226 52.616 767.226 43.336C767.226 34.056 761.146 25.096 748.538 25.096ZM748.474 58.504C742.586 58.504 740.986 50.312 740.986 43.08C740.986 35.912 742.65 28.296 748.474 28.296C754.362 28.296 756.026 35.976 756.026 43.208C756.026 50.376 754.362 58.504 748.474 58.504ZM787.502 59.4C785.71 59.4 784.302 57.992 784.302 56.2V7.944L769.902 10.248L770.158 11.784C771.694 11.592 773.102 12.744 773.102 14.28V56.2C773.102 57.992 771.694 59.4 769.902 59.4V61H787.502V59.4ZM804.305 14.6C804.305 18.12 801.425 21 797.905 21C794.385 21 791.505 18.12 791.505 14.6C791.505 11.08 794.385 8.2 797.905 8.2C801.425 8.2 804.305 11.08 804.305 14.6ZM804.177 25.544L789.777 27.848L790.033 29.384C791.569 29.192 792.977 30.344 792.977 31.88V56.2C792.977 57.992 791.569 59.4 789.777 59.4V61H807.377V59.4C805.585 59.4 804.177 57.992 804.177 56.2V25.544ZM828.788 25.096C816.116 25.096 810.036 34.184 810.036 43.464C810.036 52.744 815.988 61.704 828.66 61.704C841.268 61.704 847.476 52.616 847.476 43.336C847.476 34.056 841.396 25.096 828.788 25.096ZM828.724 58.504C822.836 58.504 821.236 50.312 821.236 43.08C821.236 35.912 822.9 28.296 828.724 28.296C834.612 28.296 836.276 35.976 836.276 43.208C836.276 50.376 834.612 58.504 828.724 58.504Z" fill="#C2685B"/>
</svg>
