<svg width="682" height="73" viewBox="0 0 682 73" fill="none" xmlns="http://www.w3.org/2000/svg">
<path d="M42.8 4.8H17.2C0.0479994 4.8 1.52 24 13.488 24C16.624 24 19.952 22.464 19.952 19.072C19.952 16.768 18.096 14.976 15.856 14.976C14.384 14.976 13.168 15.744 12.4 16.896C11.312 18.432 9.904 18.688 9.52 16C8.944 11.968 10.288 6.272 17.2 6.4C20.72 6.4 23.6 9.28 23.6 12.8V48C23.6 51.52 20.72 54.4 17.2 54.4V56H42.8V54.4C39.28 54.4 36.4 51.52 36.4 48V12.8C36.4 9.28 39.28 6.4 42.8 6.4V4.8ZM56.3045 12.608C56.3045 8.32 53.8725 4.992 50.1605 4.992C47.1525 4.992 44.7205 7.424 44.7205 10.432C44.7205 14.528 49.2005 17.152 52.5925 15.296C52.3365 18.496 49.9045 21.952 45.7445 23.744L46.1285 24.32C53.4245 21.888 56.3045 16.96 56.3045 12.608ZM127.702 65.664C128.982 62.592 127.318 58.304 123.67 58.304C121.366 58.304 119.446 60.224 119.446 62.528C119.446 63.168 119.574 63.68 119.83 64.384C120.406 65.984 120.342 67.648 118.422 67.648C115.094 67.648 114.902 63.488 114.902 60.16V27.328C114.902 25.472 113.814 20.096 107.222 20.096C99.35 20.096 94.102 27.2 94.102 27.2C94.102 24.576 91.99 20.096 86.422 20.096C78.55 20.096 73.302 27.2 73.302 27.2V20.544L58.902 22.848L59.158 24.384C60.694 24.192 62.102 25.344 62.102 26.88V51.2C62.102 52.992 60.694 54.4 58.902 54.4V56H76.502V54.4C74.71 54.4 73.302 52.992 73.302 51.2V30.4C73.558 30.08 76.118 26.304 79.254 26.304C81.366 26.304 82.902 27.776 82.902 29.376V51.2C82.902 52.992 81.494 54.4 79.702 54.4V56H97.302V54.4C95.51 54.4 94.102 52.992 94.102 51.2V30.4C94.358 30.08 96.918 26.304 100.054 26.304C102.166 26.304 103.702 27.776 103.702 29.376V57.28C103.702 65.856 108.31 70.72 118.102 70.72C123.862 70.72 126.742 68.352 127.702 65.664ZM179.932 48.128C178.012 52.032 173.34 54.08 173.34 44.928V34.176C173.34 29.12 171.676 25.216 168.22 22.976C160.092 17.728 145.628 19.968 143.388 28.352C142.876 30.208 143.452 32 144.156 33.024C145.116 34.368 146.908 35.2 148.635 34.944C150.94 34.56 152.476 32.384 152.092 30.08C151.964 29.44 151.644 28.992 151.388 28.352C148.892 21.824 162.14 20.224 162.14 31.168V35.968C157.276 37.504 141.788 38.4 141.788 48.192C141.788 53.504 145.18 56.768 151.068 56.768C155.804 56.768 159.26 54.208 162.396 50.432C163.292 54.08 166.236 56.832 170.204 56.832C175.9 56.832 178.908 54.016 180.252 48.256L179.932 48.128ZM157.852 50.944C154.716 51.328 152.988 49.152 152.988 46.144C152.988 42.944 156.635 40.768 162.14 38.272V47.936C160.54 49.664 158.94 50.816 157.852 50.944ZM681.849 50.752C681.849 47.744 679.417 45.312 676.409 45.312C673.401 45.312 670.969 47.744 670.969 50.752C670.969 53.76 673.401 56.192 676.409 56.192C679.417 56.192 681.849 53.76 681.849 50.752Z" fill="#1D3935"/>
<path d="M246.946 20.096V21.696C252.322 21.696 252.898 22.592 252.194 24.896L245.794 46.016L237.474 24.896C236.834 23.296 237.474 21.76 239.714 21.696V20.096H222.114V21.696C223.842 21.76 225.57 23.168 226.274 24.896L229.154 32.256L224.994 46.016L216.674 24.896C215.97 23.168 216.93 21.76 218.658 21.696V20.096H201.314V21.696C203.042 21.76 204.77 23.168 205.474 24.896L217.762 56H224.546L230.626 35.968L238.562 56H245.346L254.754 24.896C255.522 22.656 256.29 21.696 260.514 21.696V20.096H246.946ZM280.019 20.096C269.395 20.096 262.099 28.864 262.099 38.784C262.099 49.088 269.523 56.704 279.699 56.704C285.971 56.704 291.795 52.48 294.163 45.696L293.587 45.44C291.411 49.408 287.891 50.688 284.307 50.816C277.523 51.072 273.363 45.056 273.363 36.8H295.123C295.379 27.2 289.299 20.096 280.019 20.096ZM273.555 34.24C273.555 27.648 276.307 23.36 279.763 23.36C283.219 23.36 285.971 27.648 285.971 34.24H273.555ZM324.912 20.096C318.64 20.096 314.032 24.448 312.432 26.176V3.84C312.432 3.264 312.24 2.944 311.856 2.944C310.512 2.944 305.008 6.464 300.336 6.464C294.319 6.464 281.967 0.639996 273.391 0.639996C271.151 0.639996 268.143 0.895996 266.159 3.264C265.583 3.968 265.199 4.928 265.199 6.08C265.199 8.704 267.311 10.56 269.935 10.56C272.431 10.56 274.095 8 277.679 6.784C282.607 5.056 288.879 5.696 292.527 6.72C298.416 8.448 300.272 10.88 300.784 13.376C301.424 16.128 301.168 17.92 301.232 51.328C301.232 52.864 299.824 54.08 298.288 53.824L298.032 55.424L304.368 54.4C306.032 54.912 313.072 57.472 319.792 56.64C331.312 55.232 334.192 43.776 334.192 36.096C334.192 30.016 331.504 20.096 324.912 20.096ZM316.144 53.632C312.368 53.632 312.432 50.24 312.432 50.24V29.184C313.392 28.032 315.44 26.048 317.744 26.048C326.192 26.048 324.592 53.632 316.144 53.632ZM426.198 3.264C424.214 0.895996 421.206 0.639996 419.03 0.639996C410.39 0.639996 398.038 6.464 392.022 6.464C387.35 6.464 381.91 2.944 380.502 2.944C380.118 2.944 379.926 3.264 379.926 3.84V23.232C378.454 21.568 376.15 20.032 372.63 20.032C361.43 20.032 358.23 33.024 358.23 40.704C358.23 46.848 360.918 56.704 367.51 56.704C373.718 56.704 378.262 52.544 379.926 50.688V56H394.326V54.4C392.534 54.4 391.126 52.992 391.126 51.2C391.19 18.816 390.934 16.256 391.574 13.376C392.086 10.88 393.942 8.448 399.83 6.72C403.478 5.696 409.75 5.056 414.678 6.784C418.262 8 419.926 10.56 422.422 10.56C425.046 10.56 427.158 8.704 427.158 6.08C427.158 4.928 426.774 3.968 426.198 3.264ZM374.678 50.752C366.23 50.752 367.83 24 376.278 24C379.158 24 379.67 29.504 379.926 30.72V47.744C378.902 48.896 376.918 50.752 374.678 50.752ZM415.144 20.096C404.52 20.096 397.224 28.864 397.224 38.784C397.224 49.088 404.648 56.704 414.824 56.704C421.096 56.704 426.92 52.48 429.288 45.696L428.712 45.44C426.536 49.408 423.016 50.688 419.432 50.816C412.648 51.072 408.488 45.056 408.488 36.8H430.248C430.504 27.2 424.424 20.096 415.144 20.096ZM408.68 34.24C408.68 27.648 411.432 23.36 414.888 23.36C418.344 23.36 421.096 27.648 421.096 34.24H408.68ZM454.771 20.096V21.696C460.147 21.696 460.723 22.592 460.019 24.896L453.619 46.016L445.299 24.896C444.595 23.168 445.555 21.76 447.283 21.696V20.096H429.939V21.696C431.667 21.76 433.395 23.168 434.099 24.896L446.387 56H453.171L462.579 24.896C463.347 22.656 464.115 21.696 468.339 21.696V20.096H454.771ZM484.894 20.096C474.27 20.096 466.974 28.864 466.974 38.784C466.974 49.088 474.398 56.704 484.574 56.704C490.846 56.704 496.67 52.48 499.038 45.696L498.462 45.44C496.286 49.408 492.766 50.688 489.182 50.816C482.398 51.072 478.238 45.056 478.238 36.8H499.998C500.254 27.2 494.174 20.096 484.894 20.096ZM478.43 34.24C478.43 27.648 481.182 23.36 484.638 23.36C488.094 23.36 490.846 27.648 490.846 34.24H478.43ZM520.315 54.4C518.523 54.4 517.115 52.992 517.115 51.2V2.944L502.715 5.248L502.971 6.784C504.507 6.592 505.915 7.744 505.915 9.28V51.2C505.915 52.992 504.507 54.4 502.715 54.4V56H520.315V54.4ZM541.351 20.096C528.679 20.096 522.599 29.184 522.599 38.464C522.599 47.744 528.551 56.704 541.223 56.704C553.831 56.704 560.039 47.616 560.039 38.336C560.039 29.056 553.958 20.096 541.351 20.096ZM541.287 53.504C535.399 53.504 533.799 45.312 533.799 38.08C533.799 30.912 535.463 23.296 541.287 23.296C547.175 23.296 548.839 30.976 548.839 38.208C548.839 45.376 547.175 53.504 541.287 53.504ZM589.531 20.032C583.323 20.032 578.779 24.192 577.115 26.048V19.2L562.715 21.504L562.971 23.04C564.507 22.848 565.915 24 565.915 25.536V67.456C565.915 69.248 564.507 70.656 562.715 70.656V72.256H580.315V70.656C578.523 70.656 577.115 69.248 577.115 67.456V53.504C578.587 55.168 580.891 56.704 584.411 56.704C595.611 56.704 598.811 43.712 598.811 36.032C598.811 29.888 596.123 20.032 589.531 20.032ZM580.763 52.736C577.883 52.736 577.371 47.232 577.115 46.016V28.992C578.139 27.84 580.123 25.984 582.363 25.984C590.811 25.984 589.211 52.736 580.763 52.736ZM620.081 20.096C609.457 20.096 602.161 28.864 602.161 38.784C602.161 49.088 609.585 56.704 619.761 56.704C626.033 56.704 631.857 52.48 634.225 45.696L633.649 45.44C631.473 49.408 627.953 50.688 624.369 50.816C617.585 51.072 613.425 45.056 613.425 36.8H635.185C635.441 27.2 629.361 20.096 620.081 20.096ZM613.617 34.24C613.617 27.648 616.369 23.36 619.825 23.36C623.281 23.36 626.033 27.648 626.033 34.24H613.617ZM666.134 20.992C661.078 18.048 655.766 22.144 651.99 26.88V20.544L637.59 22.848L637.846 24.384C639.382 24.192 640.79 25.344 640.79 26.88V51.2C640.79 52.992 639.382 54.4 637.59 54.4V56H655.19V54.4C653.398 54.4 651.99 52.992 651.99 51.2V31.68C655.638 26.56 661.91 20.864 660.694 25.408C659.734 28.736 661.462 31.424 664.534 31.424C669.59 31.424 670.55 23.552 666.134 20.992Z" fill="white"/>
</svg>
