<svg width="1200" height="1200" viewBox="0 0 1200 1200" fill="none" xmlns="http://www.w3.org/2000/svg">
<path fill-rule="evenodd" clip-rule="evenodd" d="M1200 0H0V1200H1200V0ZM60 446C92.1841 288.664 227.727 125.637 378 69.0001C528.362 12.3295 771.777 7.85866 902 102C1002.24 174.463 1051.93 269.891 1087 388.5C1120.15 500.62 1160.48 717.159 1113 824C1064.03 934.197 991.42 1030.82 882 1081.5C762.277 1136.96 519.35 1225.33 404 1171.5C366.665 1149.56 323.145 1135.75 280.577 1122.24C198.376 1096.15 119.723 1071.19 95.9998 991C63.1345 879.912 36.7833 559.497 60 446Z" fill="#FFE3D1"/>
</svg>
