<svg width="1200" height="1200" viewBox="0 0 1200 1200" fill="none" xmlns="http://www.w3.org/2000/svg">
<path fill-rule="evenodd" clip-rule="evenodd" d="M1200 0H0V1200H1200V0ZM99.4998 452.5C131.684 295.165 240.726 165.137 391 108.5C541.362 51.8296 768.277 37.3583 898.5 131.5C998.735 203.962 1051.93 269.891 1087 388.5C1120.15 500.62 1134.48 714.159 1087 821C1038.03 931.196 994.42 1004.32 885 1055C777.545 1104.77 663.602 1105.88 582.453 1106.67C573.188 1106.76 564.351 1106.85 556 1107C474.5 1108.5 196.008 1053.71 160 932C127.134 820.912 76.2832 565.997 99.4998 452.5Z" fill="#FFE3D1"/>
</svg>
