<svg width="563" height="97" viewBox="0 0 563 97" fill="none" xmlns="http://www.w3.org/2000/svg">
<path d="M110.952 7.2H72.552V9.6C77.832 9.6 82.152 13.92 82.152 19.2V45.696H54.6V19.2C54.6 13.92 58.92 9.6 64.2 9.6V7.2H25.8C0.0719991 7.2 2.28 36 20.232 36C24.936 36 29.928 33.696 29.928 28.608C29.928 25.152 27.144 22.464 23.784 22.464C21.576 22.464 19.752 23.616 18.6 25.344C16.968 27.648 14.856 28.032 14.28 24C13.416 17.952 15.432 9.408 25.8 9.6C31.08 9.6 35.4 13.92 35.4 19.2V72C35.4 77.28 31.08 81.6 25.8 81.6V84H64.2V81.6C58.92 81.6 54.6 77.28 54.6 72V50.496H82.152V72C82.152 77.28 77.832 81.6 72.552 81.6V84H110.952V81.6C105.672 81.6 101.352 77.28 101.352 72V19.2C101.352 13.92 105.672 9.6 110.952 9.6V7.2ZM135.27 14.4C135.27 19.68 130.95 24 125.67 24C120.39 24 116.07 19.68 116.07 14.4C116.07 9.12 120.39 4.8 125.67 4.8C130.95 4.8 135.27 9.12 135.27 14.4ZM135.078 30.816L113.478 34.272L113.862 36.576C116.166 36.288 118.278 38.016 118.278 40.32V76.8C118.278 79.488 116.166 81.6 113.478 81.6V84H139.878V81.6C137.19 81.6 135.078 79.488 135.078 76.8V30.816ZM160.955 79.392C160.955 72.96 157.307 67.968 151.739 67.968C147.227 67.968 143.579 71.616 143.579 76.128C143.579 82.272 150.299 86.208 155.387 83.424C155.003 88.224 151.355 93.408 145.115 96.096L145.691 96.96C156.635 93.312 160.955 85.92 160.955 79.392ZM232.856 7.2H194.456V9.6C199.736 9.6 204.056 13.92 204.056 19.2V72C204.056 77.28 199.736 81.6 194.456 81.6V84H232.856V81.6C227.576 81.6 223.256 77.28 223.256 72V19.2C223.256 13.92 227.576 9.6 232.856 9.6V7.2ZM253.113 18.912C253.113 12.48 249.465 7.488 243.897 7.488C239.385 7.488 235.737 11.136 235.737 15.648C235.737 21.792 242.457 25.728 247.545 22.944C247.161 27.744 243.513 32.928 237.273 35.616L237.849 36.48C248.793 32.832 253.113 25.44 253.113 18.912ZM345.809 81.6C343.121 81.6 341.009 79.488 341.009 76.8V40.992C341.009 38.208 339.377 30.144 329.489 30.144C317.681 30.144 309.809 40.8 309.809 40.8C309.809 34.944 305.393 30.144 298.289 30.144C286.481 30.144 278.609 40.8 278.609 40.8V30.816L257.009 34.272L257.393 36.576C259.697 36.288 261.809 38.016 261.809 40.32V76.8C261.809 79.488 259.697 81.6 257.009 81.6V84H283.409V81.6C280.721 81.6 278.609 79.488 278.609 76.8V45.6C278.993 45.12 282.833 39.456 287.537 39.456C290.705 39.456 293.009 41.664 293.009 44.064V76.8C293.009 79.488 290.897 81.6 288.209 81.6V84H314.609V81.6C311.921 81.6 309.809 79.488 309.809 76.8V45.6C310.193 45.12 314.033 39.456 318.737 39.456C321.905 39.456 324.209 41.664 324.209 44.064V76.8C324.209 79.488 322.097 81.6 319.409 81.6V84H345.809V81.6Z" fill="#1D3935"/>
<path d="M448.649 33.6C447.881 26.496 446.921 14.112 446.249 7.2H383.081C357.353 7.58399 359.561 36 377.513 36C382.217 36 387.209 33.696 387.209 28.608C387.209 25.152 384.425 22.464 381.065 22.464C378.857 22.464 377.033 23.616 375.881 25.344C374.249 27.648 372.137 28.032 371.561 24C370.697 17.952 372.713 9.408 383.081 9.6C388.361 9.6 392.681 13.92 392.681 19.2V72C392.681 77.28 388.361 81.6 383.081 81.6V84H421.481V81.6C416.201 81.6 411.881 77.28 411.881 72V48.96H421.577C426.857 48.96 431.177 53.28 431.177 58.56H433.577V33.6H431.177C431.177 38.88 426.857 43.2 421.577 43.2H411.881V14.016H424.649C436.649 14.016 443.273 22.752 446.249 33.6H448.649ZM478.715 30.144C462.779 30.144 451.835 43.296 451.835 58.176C451.835 73.632 462.971 85.056 478.235 85.056C487.643 85.056 496.379 78.72 499.931 68.544L499.067 68.16C495.803 74.112 490.523 76.032 485.147 76.224C474.971 76.608 468.731 67.584 468.731 55.2H501.371C501.755 40.8 492.635 30.144 478.715 30.144ZM469.019 51.36C469.019 41.472 473.147 35.04 478.331 35.04C483.515 35.04 487.643 41.472 487.643 51.36H469.019ZM532.135 81.6C529.447 81.6 527.335 79.488 527.335 76.8V5.75999C527.335 4.89599 527.047 4.41599 526.471 4.41599C524.455 4.41599 516.199 9.696 509.191 9.696C500.167 9.696 481.639 0.959993 468.775 0.959993C465.415 0.959993 460.903 1.34399 457.927 4.89599C457.063 5.952 456.487 7.392 456.487 9.12C456.487 13.056 459.655 15.84 463.591 15.84C467.335 15.84 469.831 12 475.207 10.176C482.599 7.58399 492.007 8.544 497.479 10.08C506.311 12.672 509.095 16.32 509.863 20.064C510.823 24.576 510.439 28.608 510.535 76.8C510.535 79.488 508.423 81.6 505.735 81.6V84H532.135V81.6ZM557.426 14.4C557.426 19.68 553.106 24 547.826 24C542.546 24 538.226 19.68 538.226 14.4C538.226 9.12 542.546 4.8 547.826 4.8C553.106 4.8 557.426 9.12 557.426 14.4ZM557.234 30.816L535.634 34.272L536.018 36.576C538.322 36.288 540.434 38.016 540.434 40.32V76.8C540.434 79.488 538.322 81.6 535.634 81.6V84H562.034V81.6C559.346 81.6 557.234 79.488 557.234 76.8V30.816Z" fill="#C2685B"/>
</svg>
