<svg width="512" height="512" viewBox="0 0 512 512" fill="none" xmlns="http://www.w3.org/2000/svg">
<g clip-path="url(#clip0_401_214)">
<path d="M256.1 141C192.5 141 141.2 192.3 141.2 255.9C141.2 319.5 192.5 370.8 256.1 370.8C319.7 370.8 371 319.5 371 255.9C371 192.3 319.7 141 256.1 141ZM256.1 330.6C215 330.6 181.4 297.1 181.4 255.9C181.4 214.7 214.9 181.2 256.1 181.2C297.3 181.2 330.8 214.7 330.8 255.9C330.8 297.1 297.2 330.6 256.1 330.6V330.6ZM402.5 136.3C402.5 151.2 390.5 163.1 375.7 163.1C360.8 163.1 348.9 151.1 348.9 136.3C348.9 121.5 360.9 109.5 375.7 109.5C390.5 109.5 402.5 121.5 402.5 136.3ZM478.6 163.5C476.9 127.6 468.7 95.7999 442.4 69.5999C416.2 43.3999 384.4 35.2 348.5 33.4C311.5 31.3 200.6 31.3 163.6 33.4C127.8 35.1 95.9998 43.2999 69.6998 69.5C43.3998 95.7 35.2998 127.5 33.4998 163.4C31.3998 200.4 31.3998 311.3 33.4998 348.3C35.1998 384.2 43.3998 416 69.6998 442.2C95.9998 468.4 127.7 476.6 163.6 478.4C200.6 480.5 311.5 480.5 348.5 478.4C384.4 476.7 416.2 468.5 442.4 442.2C468.6 416 476.8 384.2 478.6 348.3C480.7 311.3 480.7 200.5 478.6 163.5V163.5ZM430.8 388C423 407.6 407.9 422.7 388.2 430.6C358.7 442.3 288.7 439.6 256.1 439.6C223.5 439.6 153.4 442.2 124 430.6C104.4 422.8 89.2998 407.7 81.3998 388C69.6998 358.5 72.3998 288.5 72.3998 255.9C72.3998 223.3 69.7998 153.2 81.3998 123.8C89.1998 104.2 104.3 89.0999 124 81.1999C153.5 69.4999 223.5 72.1999 256.1 72.1999C288.7 72.1999 358.8 69.5999 388.2 81.1999C407.8 88.9999 422.9 104.1 430.8 123.8C442.5 153.3 439.8 223.3 439.8 255.9C439.8 288.5 442.5 358.6 430.8 388Z" fill="#FFF9F4"/>
</g>
<defs>
<clipPath id="clip0_401_214">
<rect width="448" height="512" fill="white" transform="translate(32)"/>
</clipPath>
</defs>
</svg>
