<svg width="732" height="161" viewBox="0 0 732 161" fill="none" xmlns="http://www.w3.org/2000/svg">
<path d="M26.112 4.8H0.512V6.4C4.032 6.4 6.912 9.28 6.912 12.8V48C6.912 51.52 4.032 54.4 0.512 54.4V56H26.112V54.4C22.592 54.4 19.712 51.52 19.712 48V12.8C19.712 9.28 22.592 6.4 26.112 6.4V4.8ZM70.869 50.816C64.085 51.072 59.925 45.056 59.925 36.8C59.925 27.648 64.981 24.704 67.285 23.872C70.997 22.464 75.669 24.064 73.557 27.584C73.173 28.224 72.853 28.672 72.725 29.312C72.213 31.552 73.621 33.856 75.861 34.368C77.589 34.752 79.253 33.984 80.277 32.704C81.045 31.744 81.813 29.76 81.429 27.968C80.469 22.976 75.349 19.776 66.581 20.16C55.957 20.608 48.661 28.864 48.661 38.784C48.661 49.088 56.085 56.704 66.261 56.704C72.533 56.704 78.357 52.544 80.725 45.696L80.149 45.44C77.973 49.408 74.453 50.688 70.869 50.816ZM112.634 20.992C107.578 18.048 102.266 22.144 98.4895 26.88V20.544L84.0895 22.848L84.3455 24.384C85.8815 24.192 87.2895 25.344 87.2895 26.88V51.2C87.2895 52.992 85.8815 54.4 84.0895 54.4V56H101.69V54.4C99.8975 54.4 98.4895 52.992 98.4895 51.2V31.68C102.138 26.56 108.41 20.864 107.194 25.408C106.234 28.736 107.962 31.424 111.034 31.424C116.09 31.424 117.05 23.552 112.634 20.992ZM135.144 20.096C124.52 20.096 117.224 28.864 117.224 38.784C117.224 49.088 124.648 56.704 134.824 56.704C141.096 56.704 146.92 52.48 149.288 45.696L148.712 45.44C146.536 49.408 143.016 50.688 139.432 50.816C132.648 51.072 128.488 45.056 128.488 36.8H150.248C150.504 27.2 144.424 20.096 135.144 20.096ZM128.68 34.24C128.68 27.648 131.432 23.36 134.888 23.36C138.344 23.36 141.096 27.648 141.096 34.24H128.68ZM191.557 48.128C189.637 52.032 184.965 54.08 184.965 44.928V34.176C184.965 29.12 183.301 25.216 179.845 22.976C171.717 17.728 157.253 19.968 155.013 28.352C154.501 30.208 155.077 32 155.781 33.024C156.741 34.368 158.533 35.2 160.26 34.944C162.565 34.56 164.101 32.384 163.717 30.08C163.589 29.44 163.269 28.992 163.013 28.352C160.517 21.824 173.765 20.224 173.765 31.168V35.968C168.901 37.504 153.413 38.4 153.413 48.192C153.413 53.504 156.805 56.768 162.693 56.768C167.429 56.768 170.885 54.208 174.021 50.432C174.917 54.08 177.861 56.832 181.829 56.832C187.525 56.832 190.533 54.016 191.877 48.256L191.557 48.128ZM169.477 50.944C166.341 51.328 164.613 49.152 164.613 46.144C164.613 42.944 168.26 40.768 173.765 38.272V47.936C172.165 49.664 170.565 50.816 169.477 50.944ZM217.051 22.656V20.096H207.451V6.4H205.851C202.267 15.168 196.123 20.096 191.451 20.096V22.656H196.251V48.192C196.251 52.864 200.603 56.704 205.339 56.704C212.379 56.704 215.707 51.712 217.051 45.952L216.731 45.824C214.811 49.728 212.699 50.752 210.907 50.752C207.067 50.752 207.451 45.952 207.451 41.728V22.656H217.051ZM237.456 20.096C226.832 20.096 219.536 28.864 219.536 38.784C219.536 49.088 226.96 56.704 237.136 56.704C243.408 56.704 249.232 52.48 251.6 45.696L251.024 45.44C248.848 49.408 245.328 50.688 241.744 50.816C234.96 51.072 230.8 45.056 230.8 36.8H252.56C252.816 27.2 246.736 20.096 237.456 20.096ZM230.992 34.24C230.992 27.648 233.744 23.36 237.2 23.36C240.656 23.36 243.408 27.648 243.408 34.24H230.992ZM320.321 20.096V21.696C325.697 21.696 326.273 22.592 325.569 24.896L319.169 46.016L310.849 24.896C310.209 23.296 310.849 21.76 313.089 21.696V20.096H295.489V21.696C297.217 21.76 298.945 23.168 299.649 24.896L302.529 32.256L298.369 46.016L290.049 24.896C289.345 23.168 290.305 21.76 292.033 21.696V20.096H274.689V21.696C276.417 21.76 278.145 23.168 278.849 24.896L291.137 56H297.921L304.001 35.968L311.937 56H318.721L328.129 24.896C328.897 22.656 329.665 21.696 333.889 21.696V20.096H320.321ZM350.456 20.096C339.832 20.096 332.536 28.864 332.536 38.784C332.536 49.088 339.96 56.704 350.136 56.704C356.408 56.704 362.232 52.48 364.6 45.696L364.024 45.44C361.848 49.408 358.328 50.688 354.744 50.816C347.96 51.072 343.8 45.056 343.8 36.8H365.56C365.816 27.2 359.736 20.096 350.456 20.096ZM343.992 34.24C343.992 27.648 346.744 23.36 350.2 23.36C353.656 23.36 356.408 27.648 356.408 34.24H343.992ZM395.349 20.096C389.077 20.096 384.469 24.448 382.869 26.176V3.84C382.869 3.264 382.677 2.944 382.293 2.944C380.949 2.944 375.445 6.464 370.773 6.464C364.757 6.464 352.405 0.639996 343.829 0.639996C341.589 0.639996 338.581 0.895996 336.597 3.264C336.021 3.968 335.637 4.928 335.637 6.08C335.637 8.704 337.749 10.56 340.373 10.56C342.869 10.56 344.533 8 348.117 6.784C353.045 5.056 359.317 5.696 362.965 6.72C368.853 8.448 370.709 10.88 371.221 13.376C371.861 16.128 371.605 17.92 371.669 51.328C371.669 52.864 370.261 54.08 368.725 53.824L368.469 55.424L374.805 54.4C376.469 54.912 383.509 57.472 390.229 56.64C401.749 55.232 404.629 43.776 404.629 36.096C404.629 30.016 401.941 20.096 395.349 20.096ZM386.581 53.632C382.805 53.632 382.869 50.24 382.869 50.24V29.184C383.829 28.032 385.877 26.048 388.181 26.048C396.629 26.048 395.029 53.632 386.581 53.632ZM429.095 34.24C417.511 29.952 416.615 29.888 416.615 27.584C416.615 22.208 430.823 21.696 428.327 26.88C426.919 29.76 428.327 32.512 431.143 32.832C434.407 33.28 436.519 29.76 435.751 26.56C434.663 21.952 428.903 19.904 422.823 19.968C416.487 20.032 408.679 22.336 408.679 31.232C408.679 36.224 411.623 40 417.511 41.92C423.399 43.84 429.095 45.376 429.095 48.96C429.095 52.032 425.191 53.76 422.055 53.76C418.087 53.76 414.247 52.288 415.783 49.024C417.191 46.144 415.847 43.392 412.967 43.008C409.703 42.624 407.591 46.08 408.423 49.344C409.767 54.72 415.783 57.28 421.991 57.216C429.543 57.088 437.415 53.12 437.415 45.504C437.415 40.832 434.855 36.352 429.095 34.24ZM454.805 9.6C454.805 13.12 451.925 16 448.405 16C444.885 16 442.005 13.12 442.005 9.6C442.005 6.08 444.885 3.2 448.405 3.2C451.925 3.2 454.805 6.08 454.805 9.6ZM454.677 20.544L440.277 22.848L440.533 24.384C442.069 24.192 443.477 25.344 443.477 26.88V51.2C443.477 52.992 442.069 54.4 440.277 54.4V56H457.877V54.4C456.085 54.4 454.677 52.992 454.677 51.2V20.544ZM485.176 22.656V20.096H475.576V6.4H473.976C470.392 15.168 464.248 20.096 459.576 20.096V22.656H464.376V48.192C464.376 52.864 468.728 56.704 473.464 56.704C480.504 56.704 483.832 51.712 485.176 45.952L484.856 45.824C482.936 49.728 480.824 50.752 479.032 50.752C475.192 50.752 475.576 45.952 475.576 41.728V22.656H485.176ZM505.581 20.096C494.957 20.096 487.661 28.864 487.661 38.784C487.661 49.088 495.085 56.704 505.261 56.704C511.533 56.704 517.357 52.48 519.725 45.696L519.149 45.44C516.973 49.408 513.453 50.688 509.869 50.816C503.085 51.072 498.925 45.056 498.925 36.8H520.685C520.941 27.2 514.861 20.096 505.581 20.096ZM499.117 34.24C499.117 27.648 501.869 23.36 505.325 23.36C508.781 23.36 511.533 27.648 511.533 34.24H499.117ZM544.97 34.24C533.386 29.952 532.49 29.888 532.49 27.584C532.49 22.208 546.698 21.696 544.202 26.88C542.794 29.76 544.202 32.512 547.018 32.832C550.282 33.28 552.394 29.76 551.626 26.56C550.538 21.952 544.778 19.904 538.698 19.968C532.362 20.032 524.554 22.336 524.554 31.232C524.554 36.224 527.498 40 533.386 41.92C539.274 43.84 544.97 45.376 544.97 48.96C544.97 52.032 541.066 53.76 537.93 53.76C533.962 53.76 530.122 52.288 531.658 49.024C533.066 46.144 531.722 43.392 528.842 43.008C525.578 42.624 523.466 46.08 524.298 49.344C525.642 54.72 531.658 57.28 537.866 57.216C545.418 57.088 553.29 53.12 553.29 45.504C553.29 40.832 550.73 36.352 544.97 34.24ZM26.176 108.656V106.096H16.576V92.4H14.976C11.392 101.168 5.248 106.096 0.576 106.096V108.656H5.376V134.192C5.376 138.864 9.728 142.704 14.464 142.704C21.504 142.704 24.832 137.712 26.176 131.952L25.856 131.824C23.936 135.728 21.824 136.752 20.032 136.752C16.192 136.752 16.576 131.952 16.576 127.728V108.656H26.176ZM66.869 134.128C64.949 138.032 60.277 140.08 60.277 130.928V120.176C60.277 115.12 58.613 111.216 55.157 108.976C47.029 103.728 32.565 105.968 30.325 114.352C29.813 116.208 30.389 118 31.093 119.024C32.053 120.368 33.845 121.2 35.573 120.944C37.877 120.56 39.413 118.384 39.029 116.08C38.901 115.44 38.581 114.992 38.325 114.352C35.829 107.824 49.077 106.224 49.077 117.168V121.968C44.213 123.504 28.725 124.4 28.725 134.192C28.725 139.504 32.117 142.768 38.005 142.768C42.741 142.768 46.197 140.208 49.333 136.432C50.229 140.08 53.173 142.832 57.141 142.832C62.837 142.832 65.845 140.016 67.189 134.256L66.869 134.128ZM44.789 136.944C41.653 137.328 39.925 135.152 39.925 132.144C39.925 128.944 43.573 126.768 49.077 124.272V133.936C47.477 135.664 45.877 136.816 44.789 136.944ZM83.3675 95.6C83.3675 99.12 80.4875 102 76.9675 102C73.4475 102 70.5675 99.12 70.5675 95.6C70.5675 92.08 73.4475 89.2 76.9675 89.2C80.4875 89.2 83.3675 92.08 83.3675 95.6ZM83.2395 106.544L68.8395 108.848L69.0955 110.384C70.6315 110.192 72.0395 111.344 72.0395 112.88V137.2C72.0395 138.992 70.6315 140.4 68.8395 140.4V142H86.4395V140.4C84.6475 140.4 83.2395 138.992 83.2395 137.2V106.544ZM106.315 140.4C104.523 140.4 103.115 138.992 103.115 137.2V88.944L88.7145 91.248L88.9705 92.784C90.5065 92.592 91.9145 93.744 91.9145 95.28V137.2C91.9145 138.992 90.5065 140.4 88.7145 140.4V142H106.315V140.4ZM127.726 106.096C115.054 106.096 108.974 115.184 108.974 124.464C108.974 133.744 114.926 142.704 127.598 142.704C140.206 142.704 146.414 133.616 146.414 124.336C146.414 115.056 140.333 106.096 127.726 106.096ZM127.662 139.504C121.774 139.504 120.174 131.312 120.174 124.08C120.174 116.912 121.838 109.296 127.662 109.296C133.55 109.296 135.214 116.976 135.214 124.208C135.214 131.376 133.55 139.504 127.662 139.504ZM129.326 122.224C129.838 122.8 131.95 123.696 131.95 123.696C131.95 123.696 129.838 124.592 129.326 125.168C128.75 125.68 127.854 127.792 127.854 127.792C127.854 127.792 126.958 125.68 126.382 125.168C125.87 124.592 123.758 123.696 123.758 123.696C123.758 123.696 125.87 122.8 126.382 122.224C126.958 121.712 127.854 119.6 127.854 119.6C127.854 119.6 128.75 121.712 129.326 122.224ZM177.634 106.992C172.578 104.048 167.266 108.144 163.49 112.88V106.544L149.09 108.848L149.346 110.384C150.882 110.192 152.29 111.344 152.29 112.88V137.2C152.29 138.992 150.882 140.4 149.09 140.4V142H166.69V140.4C164.898 140.4 163.49 138.992 163.49 137.2V117.68C167.138 112.56 173.41 106.864 172.194 111.408C171.234 114.736 172.962 117.424 176.034 117.424C181.09 117.424 182.05 109.552 177.634 106.992ZM200.144 106.096C189.52 106.096 182.224 114.864 182.224 124.784C182.224 135.088 189.648 142.704 199.824 142.704C206.096 142.704 211.92 138.48 214.288 131.696L213.712 131.44C211.536 135.408 208.016 136.688 204.432 136.816C197.648 137.072 193.488 131.056 193.488 122.8H215.248C215.504 113.2 209.424 106.096 200.144 106.096ZM193.68 120.24C193.68 113.648 196.432 109.36 199.888 109.36C203.344 109.36 206.096 113.648 206.096 120.24H193.68ZM254.701 140.4C252.909 140.4 251.501 138.992 251.501 137.2V88.944L237.101 91.248L237.357 92.784C238.893 92.592 240.301 93.744 240.301 95.28V109.232C238.829 107.568 236.525 106.032 233.005 106.032C221.805 106.032 218.605 119.024 218.605 126.704C218.605 132.848 221.293 142.704 227.885 142.704C234.093 142.704 238.637 138.544 240.301 136.688V142H254.701V140.4ZM235.053 136.752C226.605 136.752 228.205 110 236.653 110C239.533 110 240.045 115.504 240.301 116.72V133.744C239.277 134.896 237.293 136.752 235.053 136.752ZM302.551 108.656V106.096H292.951V92.4H291.351C287.767 101.168 281.623 106.096 276.951 106.096V108.656H281.751V134.192C281.751 138.864 286.103 142.704 290.839 142.704C297.879 142.704 301.207 137.712 302.551 131.952L302.231 131.824C300.311 135.728 298.199 136.752 296.407 136.752C292.567 136.752 292.951 131.952 292.951 127.728V108.656H302.551ZM323.788 106.096C311.116 106.096 305.036 115.184 305.036 124.464C305.036 133.744 310.988 142.704 323.66 142.704C336.268 142.704 342.476 133.616 342.476 124.336C342.476 115.056 336.396 106.096 323.788 106.096ZM323.724 139.504C317.836 139.504 316.236 131.312 316.236 124.08C316.236 116.912 317.9 109.296 323.724 109.296C329.612 109.296 331.276 116.976 331.276 124.208C331.276 131.376 329.612 139.504 323.724 139.504ZM731.349 136.752C731.349 133.744 728.917 131.312 725.909 131.312C722.901 131.312 720.469 133.744 720.469 136.752C720.469 139.76 722.901 142.192 725.909 142.192C728.917 142.192 731.349 139.76 731.349 136.752Z" fill="#1D3935"/>
<path d="M389.332 106.096V107.696C394.708 107.696 395.284 108.592 394.58 110.896L388.18 129.072L386.772 125.552L379.86 110.896C379.156 109.168 380.116 107.76 381.844 107.696V106.096H364.5V107.696C366.228 107.76 367.892 109.168 368.66 110.896L382.228 142.256C381.78 147.696 377.748 157.296 377.044 152.688C376.98 151.984 376.916 151.408 376.66 150.832C375.7 148.72 373.204 147.76 371.092 148.656C366.676 150.64 368.532 158 373.844 158.832C381.972 160.112 383.444 151.92 388.564 136.88C390.932 129.968 393.94 121.072 397.14 110.896C397.908 108.656 398.676 107.696 402.9 107.696V106.096H389.332ZM420.288 106.096C407.616 106.096 401.536 115.184 401.536 124.464C401.536 133.744 407.488 142.704 420.16 142.704C432.768 142.704 438.976 133.616 438.976 124.336C438.976 115.056 432.896 106.096 420.288 106.096ZM420.224 139.504C414.336 139.504 412.736 131.312 412.736 124.08C412.736 116.912 414.4 109.296 420.224 109.296C426.112 109.296 427.776 116.976 427.776 124.208C427.776 131.376 426.112 139.504 420.224 139.504ZM479.677 140.4C477.885 140.4 476.477 138.992 476.477 137.2V106.16L462.077 108.464L462.333 110C463.869 109.808 465.277 110.96 465.277 112.496V131.696C465.021 132.016 462.461 135.792 459.325 135.792C457.213 135.792 455.677 134.32 455.677 132.72V106.16L441.277 108.464L441.533 110C443.069 109.808 444.477 110.96 444.477 112.496V134.768C444.477 138.032 445.565 142.768 452.157 142.768C460.029 142.768 465.277 134.896 465.277 134.896V137.2C465.277 138.992 463.869 140.4 462.077 140.4V142H479.677V140.4ZM510.509 106.992C505.453 104.048 500.141 108.144 496.365 112.88V106.544L481.965 108.848L482.221 110.384C483.757 110.192 485.165 111.344 485.165 112.88V137.2C485.165 138.992 483.757 140.4 481.965 140.4V142H499.565V140.4C497.773 140.4 496.365 138.992 496.365 137.2V117.68C500.013 112.56 506.285 106.864 505.069 111.408C504.109 114.736 505.837 117.424 508.909 117.424C513.965 117.424 514.925 109.552 510.509 106.992ZM563.172 106.096C555.3 106.096 550.052 113.2 550.052 113.2V106.544L535.652 108.848L535.908 110.384C537.764 110.384 538.852 111.408 538.852 112.88V137.2C538.852 138.992 537.444 140.4 535.652 140.4V142H553.252V140.4C551.46 140.4 550.052 138.992 550.052 137.2V116.4C550.308 116.08 552.868 112.304 556.004 112.304C558.116 112.304 559.652 113.776 559.652 115.376V137.2C559.652 138.992 558.244 140.4 556.452 140.4V142H574.052V140.4C572.26 140.4 570.852 138.992 570.852 137.2V113.328C570.852 111.472 569.764 106.096 563.172 106.096ZM594.331 106.096C583.707 106.096 576.411 114.864 576.411 124.784C576.411 135.088 583.835 142.704 594.011 142.704C600.283 142.704 606.107 138.48 608.475 131.696L607.899 131.44C605.723 135.408 602.203 136.688 598.619 136.816C591.835 137.072 587.675 131.056 587.675 122.8H609.435C609.691 113.2 603.611 106.096 594.331 106.096ZM587.867 120.24C587.867 113.648 590.619 109.36 594.075 109.36C597.531 109.36 600.283 113.648 600.283 120.24H587.867ZM630.456 106.096C619.832 106.096 612.536 114.864 612.536 124.784C612.536 135.088 619.96 142.704 630.136 142.704C636.408 142.704 642.232 138.48 644.6 131.696L644.024 131.44C641.848 135.408 638.328 136.688 634.744 136.816C627.96 137.072 623.8 131.056 623.8 122.8H645.56C645.816 113.2 639.736 106.096 630.456 106.096ZM623.992 120.24C623.992 113.648 626.744 109.36 630.2 109.36C633.656 109.36 636.408 113.648 636.408 120.24H623.992ZM716.885 89.264C714.901 86.896 711.893 86.64 709.717 86.64C701.077 86.64 688.725 92.464 682.709 92.464C678.037 92.464 672.597 88.944 671.189 88.944C670.805 88.944 670.613 89.264 670.613 89.84V109.232C669.141 107.568 666.837 106.032 663.317 106.032C652.117 106.032 648.917 119.024 648.917 126.704C648.917 132.848 651.605 142.704 658.197 142.704C664.405 142.704 668.949 138.544 670.613 136.688V142H685.013V140.4C683.221 140.4 681.813 138.992 681.813 137.2C681.877 104.816 681.621 102.256 682.261 99.376C682.773 96.88 684.629 94.448 690.517 92.72C694.165 91.696 700.437 91.056 705.365 92.784C708.949 94 710.613 96.56 713.109 96.56C715.733 96.56 717.845 94.704 717.845 92.08C717.845 90.928 717.461 89.968 716.885 89.264ZM665.365 136.752C656.917 136.752 658.517 110 666.965 110C669.845 110 670.357 115.504 670.613 116.72V133.744C669.589 134.896 667.605 136.752 665.365 136.752ZM709.095 120.24C697.511 115.952 696.615 115.888 696.615 113.584C696.615 108.208 710.823 107.696 708.327 112.88C706.919 115.76 708.327 118.512 711.143 118.832C714.407 119.28 716.519 115.76 715.751 112.56C714.663 107.952 708.903 105.904 702.823 105.968C696.487 106.032 688.679 108.336 688.679 117.232C688.679 122.224 691.623 126 697.511 127.92C703.399 129.84 709.095 131.376 709.095 134.96C709.095 138.032 705.191 139.76 702.055 139.76C698.087 139.76 694.247 138.288 695.783 135.024C697.191 132.144 695.847 129.392 692.967 129.008C689.703 128.624 687.591 132.08 688.423 135.344C689.767 140.72 695.783 143.28 701.991 143.216C709.543 143.088 717.415 139.12 717.415 131.504C717.415 126.832 714.855 122.352 709.095 120.24Z" fill="#C2685B"/>
</svg>
