<svg width="554" height="247" viewBox="0 0 554 247" fill="none" xmlns="http://www.w3.org/2000/svg">
<path d="M26.112 4.8H0.512V6.4C4.032 6.4 6.912 9.28 6.912 12.8V48C6.912 51.52 4.032 54.4 0.512 54.4V56H26.112V54.4C22.592 54.4 19.712 51.52 19.712 48V12.8C19.712 9.28 22.592 6.4 26.112 6.4V4.8ZM70.869 50.816C64.085 51.072 59.925 45.056 59.925 36.8C59.925 27.648 64.981 24.704 67.285 23.872C70.997 22.464 75.669 24.064 73.557 27.584C73.173 28.224 72.853 28.672 72.725 29.312C72.213 31.552 73.621 33.856 75.861 34.368C77.589 34.752 79.253 33.984 80.277 32.704C81.045 31.744 81.813 29.76 81.429 27.968C80.469 22.976 75.349 19.776 66.581 20.16C55.957 20.608 48.661 28.864 48.661 38.784C48.661 49.088 56.085 56.704 66.261 56.704C72.533 56.704 78.357 52.544 80.725 45.696L80.149 45.44C77.973 49.408 74.453 50.688 70.869 50.816ZM112.634 20.992C107.578 18.048 102.266 22.144 98.4895 26.88V20.544L84.0895 22.848L84.3455 24.384C85.8815 24.192 87.2895 25.344 87.2895 26.88V51.2C87.2895 52.992 85.8815 54.4 84.0895 54.4V56H101.69V54.4C99.8975 54.4 98.4895 52.992 98.4895 51.2V31.68C102.138 26.56 108.41 20.864 107.194 25.408C106.234 28.736 107.962 31.424 111.034 31.424C116.09 31.424 117.05 23.552 112.634 20.992ZM135.144 20.096C124.52 20.096 117.224 28.864 117.224 38.784C117.224 49.088 124.648 56.704 134.824 56.704C141.096 56.704 146.92 52.48 149.288 45.696L148.712 45.44C146.536 49.408 143.016 50.688 139.432 50.816C132.648 51.072 128.488 45.056 128.488 36.8H150.248C150.504 27.2 144.424 20.096 135.144 20.096ZM128.68 34.24C128.68 27.648 131.432 23.36 134.888 23.36C138.344 23.36 141.096 27.648 141.096 34.24H128.68ZM191.557 48.128C189.637 52.032 184.965 54.08 184.965 44.928V34.176C184.965 29.12 183.301 25.216 179.845 22.976C171.717 17.728 157.253 19.968 155.013 28.352C154.501 30.208 155.077 32 155.781 33.024C156.741 34.368 158.533 35.2 160.26 34.944C162.565 34.56 164.101 32.384 163.717 30.08C163.589 29.44 163.269 28.992 163.013 28.352C160.517 21.824 173.765 20.224 173.765 31.168V35.968C168.901 37.504 153.413 38.4 153.413 48.192C153.413 53.504 156.805 56.768 162.693 56.768C167.429 56.768 170.885 54.208 174.021 50.432C174.917 54.08 177.861 56.832 181.829 56.832C187.525 56.832 190.533 54.016 191.877 48.256L191.557 48.128ZM169.477 50.944C166.341 51.328 164.613 49.152 164.613 46.144C164.613 42.944 168.26 40.768 173.765 38.272V47.936C172.165 49.664 170.565 50.816 169.477 50.944ZM217.051 22.656V20.096H207.451V6.4H205.851C202.267 15.168 196.123 20.096 191.451 20.096V22.656H196.251V48.192C196.251 52.864 200.603 56.704 205.339 56.704C212.379 56.704 215.707 51.712 217.051 45.952L216.731 45.824C214.811 49.728 212.699 50.752 210.907 50.752C207.067 50.752 207.451 45.952 207.451 41.728V22.656H217.051ZM237.456 20.096C226.832 20.096 219.536 28.864 219.536 38.784C219.536 49.088 226.96 56.704 237.136 56.704C243.408 56.704 249.232 52.48 251.6 45.696L251.024 45.44C248.848 49.408 245.328 50.688 241.744 50.816C234.96 51.072 230.8 45.056 230.8 36.8H252.56C252.816 27.2 246.736 20.096 237.456 20.096ZM230.992 34.24C230.992 27.648 233.744 23.36 237.2 23.36C240.656 23.36 243.408 27.648 243.408 34.24H230.992ZM320.321 20.096V21.696C325.697 21.696 326.273 22.592 325.569 24.896L319.169 46.016L310.849 24.896C310.209 23.296 310.849 21.76 313.089 21.696V20.096H295.489V21.696C297.217 21.76 298.945 23.168 299.649 24.896L302.529 32.256L298.369 46.016L290.049 24.896C289.345 23.168 290.305 21.76 292.033 21.696V20.096H274.689V21.696C276.417 21.76 278.145 23.168 278.849 24.896L291.137 56H297.921L304.001 35.968L311.937 56H318.721L328.129 24.896C328.897 22.656 329.665 21.696 333.889 21.696V20.096H320.321ZM350.456 20.096C339.832 20.096 332.536 28.864 332.536 38.784C332.536 49.088 339.96 56.704 350.136 56.704C356.408 56.704 362.232 52.48 364.6 45.696L364.024 45.44C361.848 49.408 358.328 50.688 354.744 50.816C347.96 51.072 343.8 45.056 343.8 36.8H365.56C365.816 27.2 359.736 20.096 350.456 20.096ZM343.992 34.24C343.992 27.648 346.744 23.36 350.2 23.36C353.656 23.36 356.408 27.648 356.408 34.24H343.992ZM395.349 20.096C389.077 20.096 384.469 24.448 382.869 26.176V3.84C382.869 3.264 382.677 2.944 382.293 2.944C380.949 2.944 375.445 6.464 370.773 6.464C364.757 6.464 352.405 0.639996 343.829 0.639996C341.589 0.639996 338.581 0.895996 336.597 3.264C336.021 3.968 335.637 4.928 335.637 6.08C335.637 8.704 337.749 10.56 340.373 10.56C342.869 10.56 344.533 8 348.117 6.784C353.045 5.056 359.317 5.696 362.965 6.72C368.853 8.448 370.709 10.88 371.221 13.376C371.861 16.128 371.605 17.92 371.669 51.328C371.669 52.864 370.261 54.08 368.725 53.824L368.469 55.424L374.805 54.4C376.469 54.912 383.509 57.472 390.229 56.64C401.749 55.232 404.629 43.776 404.629 36.096C404.629 30.016 401.941 20.096 395.349 20.096ZM386.581 53.632C382.805 53.632 382.869 50.24 382.869 50.24V29.184C383.829 28.032 385.877 26.048 388.181 26.048C396.629 26.048 395.029 53.632 386.581 53.632ZM429.095 34.24C417.511 29.952 416.615 29.888 416.615 27.584C416.615 22.208 430.823 21.696 428.327 26.88C426.919 29.76 428.327 32.512 431.143 32.832C434.407 33.28 436.519 29.76 435.751 26.56C434.663 21.952 428.903 19.904 422.823 19.968C416.487 20.032 408.679 22.336 408.679 31.232C408.679 36.224 411.623 40 417.511 41.92C423.399 43.84 429.095 45.376 429.095 48.96C429.095 52.032 425.191 53.76 422.055 53.76C418.087 53.76 414.247 52.288 415.783 49.024C417.191 46.144 415.847 43.392 412.967 43.008C409.703 42.624 407.591 46.08 408.423 49.344C409.767 54.72 415.783 57.28 421.991 57.216C429.543 57.088 437.415 53.12 437.415 45.504C437.415 40.832 434.855 36.352 429.095 34.24ZM454.805 9.6C454.805 13.12 451.925 16 448.405 16C444.885 16 442.005 13.12 442.005 9.6C442.005 6.08 444.885 3.2 448.405 3.2C451.925 3.2 454.805 6.08 454.805 9.6ZM454.677 20.544L440.277 22.848L440.533 24.384C442.069 24.192 443.477 25.344 443.477 26.88V51.2C443.477 52.992 442.069 54.4 440.277 54.4V56H457.877V54.4C456.085 54.4 454.677 52.992 454.677 51.2V20.544ZM485.176 22.656V20.096H475.576V6.4H473.976C470.392 15.168 464.248 20.096 459.576 20.096V22.656H464.376V48.192C464.376 52.864 468.728 56.704 473.464 56.704C480.504 56.704 483.832 51.712 485.176 45.952L484.856 45.824C482.936 49.728 480.824 50.752 479.032 50.752C475.192 50.752 475.576 45.952 475.576 41.728V22.656H485.176ZM505.581 20.096C494.957 20.096 487.661 28.864 487.661 38.784C487.661 49.088 495.085 56.704 505.261 56.704C511.533 56.704 517.357 52.48 519.725 45.696L519.149 45.44C516.973 49.408 513.453 50.688 509.869 50.816C503.085 51.072 498.925 45.056 498.925 36.8H520.685C520.941 27.2 514.861 20.096 505.581 20.096ZM499.117 34.24C499.117 27.648 501.869 23.36 505.325 23.36C508.781 23.36 511.533 27.648 511.533 34.24H499.117ZM544.97 34.24C533.386 29.952 532.49 29.888 532.49 27.584C532.49 22.208 546.698 21.696 544.202 26.88C542.794 29.76 544.202 32.512 547.018 32.832C550.282 33.28 552.394 29.76 551.626 26.56C550.538 21.952 544.778 19.904 538.698 19.968C532.362 20.032 524.554 22.336 524.554 31.232C524.554 36.224 527.498 40 533.386 41.92C539.274 43.84 544.97 45.376 544.97 48.96C544.97 52.032 541.066 53.76 537.93 53.76C533.962 53.76 530.122 52.288 531.658 49.024C533.066 46.144 531.722 43.392 528.842 43.008C525.578 42.624 523.466 46.08 524.298 49.344C525.642 54.72 531.658 57.28 537.866 57.216C545.418 57.088 553.29 53.12 553.29 45.504C553.29 40.832 550.73 36.352 544.97 34.24ZM26.176 108.656V106.096H16.576V92.4H14.976C11.392 101.168 5.248 106.096 0.576 106.096V108.656H5.376V134.192C5.376 138.864 9.728 142.704 14.464 142.704C21.504 142.704 24.832 137.712 26.176 131.952L25.856 131.824C23.936 135.728 21.824 136.752 20.032 136.752C16.192 136.752 16.576 131.952 16.576 127.728V108.656H26.176ZM66.869 134.128C64.949 138.032 60.277 140.08 60.277 130.928V120.176C60.277 115.12 58.613 111.216 55.157 108.976C47.029 103.728 32.565 105.968 30.325 114.352C29.813 116.208 30.389 118 31.093 119.024C32.053 120.368 33.845 121.2 35.573 120.944C37.877 120.56 39.413 118.384 39.029 116.08C38.901 115.44 38.581 114.992 38.325 114.352C35.829 107.824 49.077 106.224 49.077 117.168V121.968C44.213 123.504 28.725 124.4 28.725 134.192C28.725 139.504 32.117 142.768 38.005 142.768C42.741 142.768 46.197 140.208 49.333 136.432C50.229 140.08 53.173 142.832 57.141 142.832C62.837 142.832 65.845 140.016 67.189 134.256L66.869 134.128ZM44.789 136.944C41.653 137.328 39.925 135.152 39.925 132.144C39.925 128.944 43.573 126.768 49.077 124.272V133.936C47.477 135.664 45.877 136.816 44.789 136.944ZM83.3675 95.6C83.3675 99.12 80.4875 102 76.9675 102C73.4475 102 70.5675 99.12 70.5675 95.6C70.5675 92.08 73.4475 89.2 76.9675 89.2C80.4875 89.2 83.3675 92.08 83.3675 95.6ZM83.2395 106.544L68.8395 108.848L69.0955 110.384C70.6315 110.192 72.0395 111.344 72.0395 112.88V137.2C72.0395 138.992 70.6315 140.4 68.8395 140.4V142H86.4395V140.4C84.6475 140.4 83.2395 138.992 83.2395 137.2V106.544ZM106.315 140.4C104.523 140.4 103.115 138.992 103.115 137.2V88.944L88.7145 91.248L88.9705 92.784C90.5065 92.592 91.9145 93.744 91.9145 95.28V137.2C91.9145 138.992 90.5065 140.4 88.7145 140.4V142H106.315V140.4ZM127.726 106.096C115.054 106.096 108.974 115.184 108.974 124.464C108.974 133.744 114.926 142.704 127.598 142.704C140.206 142.704 146.414 133.616 146.414 124.336C146.414 115.056 140.333 106.096 127.726 106.096ZM127.662 139.504C121.774 139.504 120.174 131.312 120.174 124.08C120.174 116.912 121.838 109.296 127.662 109.296C133.55 109.296 135.214 116.976 135.214 124.208C135.214 131.376 133.55 139.504 127.662 139.504ZM129.326 122.224C129.838 122.8 131.95 123.696 131.95 123.696C131.95 123.696 129.838 124.592 129.326 125.168C128.75 125.68 127.854 127.792 127.854 127.792C127.854 127.792 126.958 125.68 126.382 125.168C125.87 124.592 123.758 123.696 123.758 123.696C123.758 123.696 125.87 122.8 126.382 122.224C126.958 121.712 127.854 119.6 127.854 119.6C127.854 119.6 128.75 121.712 129.326 122.224ZM177.634 106.992C172.578 104.048 167.266 108.144 163.49 112.88V106.544L149.09 108.848L149.346 110.384C150.882 110.192 152.29 111.344 152.29 112.88V137.2C152.29 138.992 150.882 140.4 149.09 140.4V142H166.69V140.4C164.898 140.4 163.49 138.992 163.49 137.2V117.68C167.138 112.56 173.41 106.864 172.194 111.408C171.234 114.736 172.962 117.424 176.034 117.424C181.09 117.424 182.05 109.552 177.634 106.992ZM200.144 106.096C189.52 106.096 182.224 114.864 182.224 124.784C182.224 135.088 189.648 142.704 199.824 142.704C206.096 142.704 211.92 138.48 214.288 131.696L213.712 131.44C211.536 135.408 208.016 136.688 204.432 136.816C197.648 137.072 193.488 131.056 193.488 122.8H215.248C215.504 113.2 209.424 106.096 200.144 106.096ZM193.68 120.24C193.68 113.648 196.432 109.36 199.888 109.36C203.344 109.36 206.096 113.648 206.096 120.24H193.68ZM254.701 140.4C252.909 140.4 251.501 138.992 251.501 137.2V88.944L237.101 91.248L237.357 92.784C238.893 92.592 240.301 93.744 240.301 95.28V109.232C238.829 107.568 236.525 106.032 233.005 106.032C221.805 106.032 218.605 119.024 218.605 126.704C218.605 132.848 221.293 142.704 227.885 142.704C234.093 142.704 238.637 138.544 240.301 136.688V142H254.701V140.4ZM235.053 136.752C226.605 136.752 228.205 110 236.653 110C239.533 110 240.045 115.504 240.301 116.72V133.744C239.277 134.896 237.293 136.752 235.053 136.752ZM302.551 108.656V106.096H292.951V92.4H291.351C287.767 101.168 281.623 106.096 276.951 106.096V108.656H281.751V134.192C281.751 138.864 286.103 142.704 290.839 142.704C297.879 142.704 301.207 137.712 302.551 131.952L302.231 131.824C300.311 135.728 298.199 136.752 296.407 136.752C292.567 136.752 292.951 131.952 292.951 127.728V108.656H302.551ZM323.788 106.096C311.116 106.096 305.036 115.184 305.036 124.464C305.036 133.744 310.988 142.704 323.66 142.704C336.268 142.704 342.476 133.616 342.476 124.336C342.476 115.056 336.396 106.096 323.788 106.096ZM323.724 139.504C317.836 139.504 316.236 131.312 316.236 124.08C316.236 116.912 317.9 109.296 323.724 109.296C329.612 109.296 331.276 116.976 331.276 124.208C331.276 131.376 329.612 139.504 323.724 139.504ZM366.849 222.752C366.849 219.744 364.417 217.312 361.409 217.312C358.401 217.312 355.969 219.744 355.969 222.752C355.969 225.76 358.401 228.192 361.409 228.192C364.417 228.192 366.849 225.76 366.849 222.752Z" fill="#1D3935"/>
<path d="M24.832 192.096V193.696C30.208 193.696 30.784 194.592 30.08 196.896L23.68 215.072L22.272 211.552L15.36 196.896C14.656 195.168 15.616 193.76 17.344 193.696V192.096H0V193.696C1.728 193.76 3.392 195.168 4.16 196.896L17.728 228.256C17.28 233.696 13.248 243.296 12.544 238.688C12.48 237.984 12.416 237.408 12.16 236.832C11.2 234.72 8.704 233.76 6.592 234.656C2.176 236.64 4.032 244 9.344 244.832C17.472 246.112 18.944 237.92 24.064 222.88C26.432 215.968 29.44 207.072 32.64 196.896C33.408 194.656 34.176 193.696 38.4 193.696V192.096H24.832ZM55.788 192.096C43.116 192.096 37.036 201.184 37.036 210.464C37.036 219.744 42.988 228.704 55.66 228.704C68.268 228.704 74.476 219.616 74.476 210.336C74.476 201.056 68.396 192.096 55.788 192.096ZM55.724 225.504C49.836 225.504 48.236 217.312 48.236 210.08C48.236 202.912 49.9 195.296 55.724 195.296C61.612 195.296 63.276 202.976 63.276 210.208C63.276 217.376 61.612 225.504 55.724 225.504ZM115.177 226.4C113.385 226.4 111.977 224.992 111.977 223.2V192.16L97.577 194.464L97.833 196C99.369 195.808 100.777 196.96 100.777 198.496V217.696C100.521 218.016 97.961 221.792 94.825 221.792C92.713 221.792 91.177 220.32 91.177 218.72V192.16L76.777 194.464L77.033 196C78.569 195.808 79.977 196.96 79.977 198.496V220.768C79.977 224.032 81.065 228.768 87.657 228.768C95.529 228.768 100.777 220.896 100.777 220.896V223.2C100.777 224.992 99.369 226.4 97.577 226.4V228H115.177V226.4ZM146.009 192.992C140.953 190.048 135.641 194.144 131.865 198.88V192.544L117.465 194.848L117.721 196.384C119.257 196.192 120.665 197.344 120.665 198.88V223.2C120.665 224.992 119.257 226.4 117.465 226.4V228H135.065V226.4C133.273 226.4 131.865 224.992 131.865 223.2V203.68C135.513 198.56 141.785 192.864 140.569 197.408C139.609 200.736 141.337 203.424 144.409 203.424C149.465 203.424 150.425 195.552 146.009 192.992ZM198.672 192.096C190.8 192.096 185.552 199.2 185.552 199.2V192.544L171.152 194.848L171.408 196.384C173.264 196.384 174.352 197.408 174.352 198.88V223.2C174.352 224.992 172.944 226.4 171.152 226.4V228H188.752V226.4C186.96 226.4 185.552 224.992 185.552 223.2V202.4C185.808 202.08 188.368 198.304 191.504 198.304C193.616 198.304 195.152 199.776 195.152 201.376V223.2C195.152 224.992 193.744 226.4 191.952 226.4V228H209.552V226.4C207.76 226.4 206.352 224.992 206.352 223.2V199.328C206.352 197.472 205.264 192.096 198.672 192.096ZM229.831 192.096C219.207 192.096 211.911 200.864 211.911 210.784C211.911 221.088 219.335 228.704 229.511 228.704C235.783 228.704 241.607 224.48 243.975 217.696L243.399 217.44C241.223 221.408 237.703 222.688 234.119 222.816C227.335 223.072 223.175 217.056 223.175 208.8H244.935C245.191 199.2 239.111 192.096 229.831 192.096ZM223.367 206.24C223.367 199.648 226.119 195.36 229.575 195.36C233.031 195.36 235.783 199.648 235.783 206.24H223.367ZM265.956 192.096C255.332 192.096 248.036 200.864 248.036 210.784C248.036 221.088 255.46 228.704 265.636 228.704C271.908 228.704 277.732 224.48 280.1 217.696L279.524 217.44C277.348 221.408 273.828 222.688 270.244 222.816C263.46 223.072 259.3 217.056 259.3 208.8H281.06C281.316 199.2 275.236 192.096 265.956 192.096ZM259.492 206.24C259.492 199.648 262.244 195.36 265.7 195.36C269.156 195.36 271.908 199.648 271.908 206.24H259.492ZM352.385 175.264C350.401 172.896 347.393 172.64 345.217 172.64C336.577 172.64 324.225 178.464 318.209 178.464C313.537 178.464 308.097 174.944 306.689 174.944C306.305 174.944 306.113 175.264 306.113 175.84V195.232C304.641 193.568 302.337 192.032 298.817 192.032C287.617 192.032 284.417 205.024 284.417 212.704C284.417 218.848 287.105 228.704 293.697 228.704C299.905 228.704 304.449 224.544 306.113 222.688V228H320.513V226.4C318.721 226.4 317.313 224.992 317.313 223.2C317.377 190.816 317.121 188.256 317.761 185.376C318.273 182.88 320.129 180.448 326.017 178.72C329.665 177.696 335.937 177.056 340.865 178.784C344.449 180 346.113 182.56 348.609 182.56C351.233 182.56 353.345 180.704 353.345 178.08C353.345 176.928 352.961 175.968 352.385 175.264ZM300.865 222.752C292.417 222.752 294.017 196 302.465 196C305.345 196 305.857 201.504 306.113 202.72V219.744C305.089 220.896 303.105 222.752 300.865 222.752ZM344.595 206.24C333.011 201.952 332.115 201.888 332.115 199.584C332.115 194.208 346.323 193.696 343.827 198.88C342.419 201.76 343.827 204.512 346.643 204.832C349.907 205.28 352.019 201.76 351.251 198.56C350.163 193.952 344.403 191.904 338.323 191.968C331.987 192.032 324.179 194.336 324.179 203.232C324.179 208.224 327.123 212 333.011 213.92C338.899 215.84 344.595 217.376 344.595 220.96C344.595 224.032 340.691 225.76 337.555 225.76C333.587 225.76 329.747 224.288 331.283 221.024C332.691 218.144 331.347 215.392 328.467 215.008C325.203 214.624 323.091 218.08 323.923 221.344C325.267 226.72 331.283 229.28 337.491 229.216C345.043 229.088 352.915 225.12 352.915 217.504C352.915 212.832 350.355 208.352 344.595 206.24Z" fill="#C2685B"/>
</svg>
