<svg width="453" height="129" viewBox="0 0 453 129" fill="none" xmlns="http://www.w3.org/2000/svg">
<path d="M58.4272 39.4189L58.6255 41.0066C62.1183 40.5703 65.3331 43.0711 65.7694 46.564L69.7674 78.5712L45.1933 49.1341C42.5343 45.9189 43.1934 42.9342 46.6863 42.4979L46.4879 40.9102L24.1337 43.7024C7.11392 45.8283 10.9543 64.6979 22.83 63.2145C25.9418 62.8258 29.0538 60.8891 28.6334 57.5233C28.3478 55.2371 26.284 53.6889 24.0613 53.9666C22.6006 54.149 21.4892 55.0618 20.8699 56.3001C19.9807 57.9591 18.6153 58.3877 17.9011 55.768C16.8298 51.8385 17.4574 46.0198 24.332 45.2901C27.6978 44.8697 30.7459 47.0688 31.4124 50.3395L34.4902 75.496C35.3706 83.0612 36.4252 96.1514 29.5979 101.39C28.1292 102.541 26.5336 103.192 24.6284 103.43C21.072 103.874 18.7703 99.9046 20.7948 97.0073C24.2801 91.8637 20.3673 84.2902 13.6991 85.1231C7.41195 85.9085 5.71263 91.9255 6.27583 96.4344C7.28326 104.5 14.4828 109.47 22.6751 108.446C26.9936 107.907 31.1137 105.78 33.6463 102.819C40.0848 95.5008 39.7285 84.9032 38.5545 75.5043L36.0559 54.9837L65.4082 90.1448L74.9342 88.9549L69.5798 46.088C69.1435 42.5952 71.6443 39.3804 75.1372 38.9441L74.9389 37.3564L58.4272 39.4189Z" fill="#1D3935"/>
<path d="M101.756 50.437C89.1308 51.5258 83.8542 61.1026 84.6515 70.3483C85.4489 79.594 92.1488 88.0094 104.774 86.9206C117.335 85.8373 122.739 76.2495 121.942 67.0038C121.145 57.7581 114.317 49.3537 101.756 50.437ZM104.563 83.727C98.6965 84.2329 96.3985 76.2086 95.7771 69.0034C95.1612 61.8619 96.1647 54.1311 101.967 53.6307C107.833 53.1248 110.151 60.6334 110.772 67.8386C111.388 74.9801 110.429 83.221 104.563 83.727ZM104.736 66.3679C105.295 66.8978 107.477 67.609 107.477 67.609C107.477 67.609 105.449 68.6831 104.989 69.301C104.459 69.8606 103.748 72.0418 103.748 72.0418C103.748 72.0418 102.673 70.0146 102.056 69.554C101.496 69.0241 99.3149 68.3129 99.3149 68.3129C99.3149 68.3129 101.342 67.2387 101.803 66.6208C102.333 66.0612 103.044 63.8801 103.044 63.8801C103.044 63.8801 104.118 65.9073 104.736 66.3679Z" fill="#1D3935"/>
<path d="M160.152 92.1546C161.255 89.0146 159.349 84.8284 155.707 85.0361C153.407 85.1674 151.599 87.1936 151.73 89.4939C151.767 90.1328 151.924 90.6367 152.22 91.325C152.882 92.8257 152.917 94.5545 151 94.6639C147.677 94.8534 147.249 90.7111 147.059 87.3885L144.923 49.9454L154.507 49.3986L154.362 46.8428L144.777 47.3895L143.997 33.7158L142.4 33.8069C139.321 42.7648 133.468 48.0347 128.803 48.3008L128.949 50.8566L133.741 50.5833L135.713 85.1511C136.202 93.7131 141.079 98.3068 150.855 97.7491C156.606 97.421 159.346 94.8929 160.152 92.1546Z" fill="#1D3935"/>
<path d="M238.968 0.50531C232.504 0.552839 228.366 3.46335 228.403 8.51921C228.434 12.7431 232.426 16.0418 236.834 14.8574C239.005 14.2014 240.784 12.4603 241.344 10.2801C242.029 7.71499 243.337 2.84124 247.077 6.52585C249.72 9.13048 250.577 12.5803 249.262 16.558C247.259 22.5889 241.284 28.265 233.349 28.3234C225.221 28.3831 209.293 20.8201 196.957 23.0868C186.667 25.0185 183.008 32.2776 182.66 37.1443C182.08 45.3408 187.199 53.8154 197.502 53.7396C204.734 53.6865 208.288 49.5642 208.13 45.5333C208.108 42.4614 205.594 40.0478 202.523 40.1344C199.579 40.22 197.23 42.7333 197.252 45.7413C197.329 47.5967 198.26 52.326 194.608 51.7769C188.65 50.9247 185.071 43.0148 187.203 37.0469C190.527 27.7422 200.707 28.2434 209.553 30.1624L209.87 73.2332C209.896 76.7531 207.037 79.6542 203.517 79.6801L203.529 81.2801L229.128 81.0918L229.117 79.4919C225.597 79.5178 222.696 76.659 222.67 73.1391L222.557 57.7795L229.021 57.732C232.541 57.7061 235.442 60.5649 235.468 64.0848L237.067 64.073L236.945 47.4335L235.345 47.4452C235.371 50.9651 232.512 53.8662 228.992 53.8921L222.529 53.9396L222.378 33.4602C232.891 35.7509 245.114 35.5971 251.688 24.3484C257.186 14.8997 252.536 0.405546 238.968 0.50531Z" fill="#1D3935"/>
<path d="M259.919 45.8176C247.252 45.4636 240.921 54.3782 240.661 63.6546C240.402 72.931 246.101 82.0538 258.768 82.4078C271.372 82.76 277.831 73.849 278.09 64.5726C278.35 55.2962 272.522 46.1699 259.919 45.8176ZM258.922 79.2108C253.036 79.0463 251.666 70.8128 251.868 63.5836C252.068 56.4184 253.944 48.8519 259.766 49.0146C265.651 49.1791 267.1 56.9026 266.898 64.1318C266.698 71.297 264.808 79.3753 258.922 79.2108ZM261.068 61.9841C261.564 62.5741 263.65 63.5288 263.65 63.5288C263.65 63.5288 261.514 64.3654 260.986 64.9269C260.396 65.4226 259.441 67.5088 259.441 67.5088C259.441 67.5088 258.604 65.3725 258.043 64.8447C257.547 64.2546 255.461 63.2999 255.461 63.2999C255.461 63.2999 257.597 62.4633 258.125 61.9018C258.715 61.4061 259.67 59.32 259.67 59.32C259.67 59.32 260.506 61.4562 261.068 61.9841Z" fill="#1D3935"/>
<path d="M323.963 83.3456C322.175 83.235 320.856 81.7427 320.967 79.9541L322.883 48.9733L308.368 50.3841L308.529 51.933C310.074 51.8361 311.408 53.0729 311.313 54.6059L310.128 73.7693C309.853 74.0729 307.064 77.6837 303.934 77.4901C301.826 77.3598 300.384 75.7957 300.483 74.1988L302.122 47.6894L287.608 49.1002L287.768 50.6491C289.313 50.5523 290.647 51.789 290.553 53.322L289.178 75.5516C288.976 78.8093 289.77 83.6035 296.349 84.0104C304.206 84.4963 309.93 76.9632 309.93 76.9632L309.788 79.2628C309.678 81.0514 308.185 82.3698 306.397 82.2592L306.298 83.8561L323.864 84.9425L323.963 83.3456Z" fill="#1D3935"/>
<path d="M369.248 60.3599C369.425 58.5124 368.855 53.0571 362.293 52.4279C354.457 51.6766 348.555 58.2473 348.555 58.2473L349.19 51.6216L334.636 52.5408L334.744 54.0942C336.291 54.0497 337.583 55.3308 337.436 56.8598L335.115 81.0687C334.944 82.8526 333.408 84.1198 331.624 83.9487L331.472 85.5414L348.991 87.2212L349.144 85.6285C347.36 85.4575 346.093 83.9215 346.264 82.1377L348.249 61.4327C348.535 61.1385 351.443 57.6241 354.565 57.9234C356.667 58.125 358.056 59.7369 357.903 61.3296L355.002 91.5908C338.257 92.5571 326.4 112.959 313.713 111.163C307.558 110.316 305.252 105.53 305.228 101.092C305.2 97.3599 307.087 102.491 312.948 103.053C316.707 103.414 320.382 100.616 320.743 96.8571C321.702 86.8549 306.991 85.3802 300.83 93.9834C298.829 96.7491 297.856 100.192 298.042 103.617C298.587 114.021 307.371 122.321 319.946 118.576C329.144 115.858 343.481 97.7514 354.87 93.6356C355.223 97.3341 357.589 102.833 364.342 103.481C371.732 104.189 375.97 100.223 376.226 97.5477C376.507 94.6171 370.608 92.4442 366.275 92.0288L369.248 60.3599ZM370.88 98.321C370.157 99.1518 366.455 100.211 366.186 93.6276C372.326 95.3092 371.527 97.6115 370.88 98.321Z" fill="#1D3935"/>
<path d="M451.594 46.5435C449.932 43.9398 446.982 43.2989 444.824 43.0188C436.256 41.907 423.257 46.093 417.291 45.3189C412.658 44.7176 407.716 40.5269 406.32 40.3457C405.939 40.2962 405.707 40.5889 405.633 41.1601L403.138 60.3909C401.892 58.5513 399.805 56.7315 396.314 56.2786C385.207 54.8373 380.362 67.3095 379.374 74.9256C378.583 81.0185 379.98 91.1385 386.517 91.9868C392.674 92.7857 397.715 89.245 399.604 87.6186L398.921 92.8864L413.201 94.7395L413.407 93.1528C411.63 92.9222 410.415 91.3447 410.645 89.5676C414.876 57.4611 414.952 54.8894 415.957 52.1157C416.786 49.7064 418.939 47.5334 425.001 46.5775C428.75 46.0315 435.053 46.2039 439.717 48.5517C443.115 50.2188 444.436 52.9717 446.911 53.2929C449.513 53.6305 451.846 52.0618 452.184 49.4596C452.332 48.3172 452.075 47.3157 451.594 46.5435ZM394.392 87.0067C386.014 85.9196 391.043 59.5959 399.421 60.683C402.277 61.0536 402.077 66.5778 402.174 67.8166L399.983 84.699C398.819 85.7097 396.613 87.2949 394.392 87.0067Z" fill="#1D3935"/>
</svg>
