<svg width="470" height="155" viewBox="0 0 470 155" fill="none" xmlns="http://www.w3.org/2000/svg">
<path d="M53.488 25.056C59.12 22.88 62 18.528 62 13.92C62 5.856 55.024 0.799999 44.528 0.799999H17.2C0.0479994 0.799999 1.52 20 13.488 20C16.624 20 19.952 18.464 19.952 15.072C19.952 12.768 18.096 10.976 15.856 10.976C14.384 10.976 13.168 11.744 12.4 12.896C11.312 14.432 9.904 14.688 9.52 12C8.944 7.968 10.288 2.272 17.2 2.4C20.72 2.4 23.6 5.28 23.6 8.8V44C23.6 47.52 20.72 50.4 17.2 50.4V52H47.6C58.928 52 66.8 46.56 66.8 37.92C66.8 32.096 62.128 26.72 53.488 25.056ZM36.4 5.408C43.056 5.408 49.264 7.392 49.264 14.304C49.264 20.832 44.464 24.16 36.4 24.16V5.408ZM54.064 37.792C54.064 44.64 48.816 47.52 36.4 47.584V27.104C48.176 27.296 54.064 30.944 54.064 37.792ZM97.6335 16.992C92.5775 14.048 87.2655 18.144 83.4895 22.88V16.544L69.0895 18.848L69.3455 20.384C70.8815 20.192 72.2895 21.344 72.2895 22.88V47.2C72.2895 48.992 70.8815 50.4 69.0895 50.4V52H86.6895V50.4C84.8975 50.4 83.4895 48.992 83.4895 47.2V27.68C87.1375 22.56 93.4095 16.864 92.1935 21.408C91.2335 24.736 92.9615 27.424 96.0335 27.424C101.09 27.424 102.05 19.552 97.6335 16.992ZM120.976 16.096C108.304 16.096 102.224 25.184 102.224 34.464C102.224 43.744 108.176 52.704 120.848 52.704C133.456 52.704 139.664 43.616 139.664 34.336C139.664 25.056 133.583 16.096 120.976 16.096ZM120.912 49.504C115.024 49.504 113.424 41.312 113.424 34.08C113.424 26.912 115.088 19.296 120.912 19.296C126.8 19.296 128.464 26.976 128.464 34.208C128.464 41.376 126.8 49.504 120.912 49.504ZM184.259 16.096V17.696C189.635 17.696 190.211 18.592 189.507 20.896L183.107 42.016L174.787 20.896C174.147 19.296 174.787 17.76 177.027 17.696V16.096H159.427V17.696C161.155 17.76 162.883 19.168 163.587 20.896L166.467 28.256L162.307 42.016L153.987 20.896C153.283 19.168 154.243 17.76 155.971 17.696V16.096H138.627V17.696C140.355 17.76 142.083 19.168 142.786 20.896L155.075 52H161.859L167.939 31.968L175.875 52H182.659L192.067 20.896C192.835 18.656 193.603 17.696 197.827 17.696V16.096H184.259ZM219.22 30.24C207.636 25.952 206.74 25.888 206.74 23.584C206.74 18.208 220.948 17.696 218.452 22.88C217.044 25.76 218.452 28.512 221.268 28.832C224.532 29.28 226.644 25.76 225.876 22.56C224.788 17.952 219.028 15.904 212.948 15.968C206.612 16.032 198.804 18.336 198.804 27.232C198.804 32.224 201.748 36 207.636 37.92C213.524 39.84 219.22 41.376 219.22 44.96C219.22 48.032 215.316 49.76 212.18 49.76C208.212 49.76 204.372 48.288 205.908 45.024C207.316 42.144 205.972 39.392 203.092 39.008C199.828 38.624 197.716 42.08 198.548 45.344C199.892 50.72 205.908 53.28 212.116 53.216C219.668 53.088 227.54 49.12 227.54 41.504C227.54 36.832 224.98 32.352 219.22 30.24ZM248.706 16.096C238.082 16.096 230.786 24.864 230.786 34.784C230.786 45.088 238.21 52.704 248.386 52.704C254.658 52.704 260.482 48.48 262.85 41.696L262.274 41.44C260.098 45.408 256.578 46.688 252.994 46.816C246.21 47.072 242.05 41.056 242.05 32.8H263.81C264.066 23.2 257.986 16.096 248.706 16.096ZM242.242 30.24C242.242 23.648 244.994 19.36 248.45 19.36C251.906 19.36 254.658 23.648 254.658 30.24H242.242ZM346.227 50.4C344.435 50.4 343.027 48.992 343.027 47.2V23.328C343.027 21.472 341.939 16.096 335.347 16.096C327.475 16.096 322.227 23.2 322.227 23.2C322.227 19.296 319.283 16.096 314.547 16.096C306.675 16.096 301.427 23.2 301.427 23.2V16.544L287.027 18.848L287.283 20.384C288.819 20.192 290.227 21.344 290.227 22.88V47.2C290.227 48.992 288.819 50.4 287.027 50.4V52H304.627V50.4C302.835 50.4 301.427 48.992 301.427 47.2V26.4C301.683 26.08 304.243 22.304 307.379 22.304C309.491 22.304 311.027 23.776 311.027 25.376V47.2C311.027 48.992 309.619 50.4 307.827 50.4V52H325.427V50.4C323.635 50.4 322.227 48.992 322.227 47.2V26.4C322.483 26.08 325.043 22.304 328.179 22.304C330.291 22.304 331.827 23.776 331.827 25.376V47.2C331.827 48.992 330.419 50.4 328.627 50.4V52H346.227V50.4ZM371.582 16.096V17.696C376.958 17.696 377.534 18.592 376.83 20.896L370.43 39.072L369.022 35.552L362.11 20.896C361.406 19.168 362.366 17.76 364.094 17.696V16.096H346.75V17.696C348.478 17.76 350.142 19.168 350.91 20.896L364.478 52.256C364.03 57.696 359.998 67.296 359.294 62.688C359.23 61.984 359.166 61.408 358.91 60.832C357.95 58.72 355.454 57.76 353.342 58.656C348.926 60.64 350.782 68 356.094 68.832C364.222 70.112 365.694 61.92 370.814 46.88C373.182 39.968 376.19 31.072 379.39 20.896C380.158 18.656 380.926 17.696 385.15 17.696V16.096H371.582ZM469.537 132.752C469.537 129.744 467.105 127.312 464.097 127.312C461.089 127.312 458.657 129.744 458.657 132.752C458.657 135.76 461.089 138.192 464.097 138.192C467.105 138.192 469.537 135.76 469.537 132.752Z" fill="#1D3935"/>
<path d="M80.432 88.976C74.928 88.976 70 96.208 67.568 100.432C62.32 109.776 58.544 128.016 58.544 128.016L50.224 106.896C49.584 105.296 50.16 103.824 52.464 103.696V102.096H34.864V103.696C36.464 103.824 38.256 104.976 39.024 106.896L41.904 114.256L37.744 128.016L36.336 124.496L29.424 106.896C28.72 105.168 29.68 103.76 31.408 103.696V102.096H14.064V103.696C15.792 103.76 17.52 105.168 18.224 106.896L30.512 138H37.296L43.376 117.968L51.312 138H58.096C60.464 130.128 62.256 123.856 63.856 118.928C66.288 111.376 69.744 102.736 74.032 99.536C76.08 97.936 79.472 98.704 80.496 98.704C88.24 98.896 88.496 88.976 80.432 88.976ZM93.0185 102.096C82.3945 102.096 75.0985 110.864 75.0985 120.784C75.0985 131.088 82.5225 138.704 92.6985 138.704C98.9705 138.704 104.795 134.48 107.163 127.696L106.587 127.44C104.411 131.408 100.891 132.688 97.3065 132.816C90.5225 133.072 86.3625 127.056 86.3625 118.8H108.123C108.379 109.2 102.299 102.096 93.0185 102.096ZM86.5545 116.24C86.5545 109.648 89.3065 105.36 92.7625 105.36C96.2185 105.36 98.9705 109.648 98.9705 116.24H86.5545ZM137.22 102.096C130.948 102.096 126.34 106.448 124.74 108.176V84.944L110.34 87.248L110.596 88.784C112.132 88.592 113.54 89.744 113.54 91.28V133.328C113.54 134.864 112.132 136.08 110.596 135.824L110.34 137.424L116.676 136.4C118.34 136.912 125.38 139.472 132.1 138.64C143.62 137.232 146.5 125.776 146.5 118.096C146.5 112.016 143.812 102.096 137.22 102.096ZM128.452 135.632C124.676 135.632 124.74 132.24 124.74 132.24V111.184C125.7 110.032 127.748 108.048 130.052 108.048C138.5 108.048 136.9 135.632 128.452 135.632ZM196.718 102.032C190.51 102.032 185.966 106.192 184.302 108.048V101.2L169.902 103.504L170.158 105.04C171.694 104.848 173.102 106 173.102 107.536V149.456C173.102 151.248 171.694 152.656 169.902 152.656V154.256H187.502V152.656C185.71 152.656 184.302 151.248 184.302 149.456V135.504C185.774 137.168 188.078 138.704 191.598 138.704C202.798 138.704 205.998 125.712 205.998 118.032C205.998 111.888 203.31 102.032 196.718 102.032ZM187.95 134.736C185.07 134.736 184.558 129.232 184.302 128.016V110.992C185.326 109.84 187.31 107.984 189.55 107.984C197.998 107.984 196.398 134.736 187.95 134.736ZM228.101 102.096C215.429 102.096 209.349 111.184 209.349 120.464C209.349 129.744 215.301 138.704 227.973 138.704C240.581 138.704 246.789 129.616 246.789 120.336C246.789 111.056 240.708 102.096 228.101 102.096ZM228.037 135.504C222.149 135.504 220.549 127.312 220.549 120.08C220.549 112.912 222.213 105.296 228.037 105.296C233.925 105.296 235.589 112.976 235.589 120.208C235.589 127.376 233.925 135.504 228.037 135.504ZM298.371 104.656H307.971V102.096H298.371V95.12C298.371 77.52 269.251 80.016 269.251 94.544C269.251 97.808 270.659 100.624 271.747 102.352C268.675 103.312 265.795 105.936 263.427 108.88V102.544L249.027 104.848L249.283 106.384C250.819 106.192 252.227 107.344 252.227 108.88V133.2C252.227 134.992 250.819 136.4 249.027 136.4V138H266.627V136.4C264.835 136.4 263.427 134.992 263.427 133.2V113.68C267.075 108.56 273.347 102.864 272.131 107.408C271.171 110.736 272.899 113.424 275.971 113.424C278.915 113.424 280.451 110.928 280.387 108.304C280.387 107.216 280.131 106.064 279.555 105.04C278.083 102.48 276.547 103.056 275.075 100.752C273.923 98.96 273.219 96.976 273.219 94.736C273.219 81.552 294.339 81.552 294.339 93.008C294.339 99.088 288.515 102.096 282.371 102.096V104.656H287.171V130.192C287.171 134.864 291.459 138.704 296.259 138.704C303.299 138.704 306.627 133.712 307.971 127.952L307.587 127.824C305.731 131.728 303.619 132.752 301.763 132.752C297.987 132.752 298.371 127.952 298.371 123.728V104.656ZM340.042 89.552C338.186 84.688 326.986 81.552 318.794 86.864C315.274 89.104 313.674 93.136 313.674 98.256V102.096H310.154V104.656H313.674V133.2C313.674 134.992 312.266 136.4 310.474 136.4V138H328.074V136.4C326.282 136.4 324.874 134.992 324.874 133.2V104.656H331.274V102.096H324.874V95.056C324.874 87.696 329.098 87.056 331.018 87.376C332.554 87.632 332.682 89.296 332.17 90.832C331.914 91.536 331.722 92.048 331.722 92.688C331.722 94.992 333.642 96.912 335.946 96.912C339.402 96.912 341.257 92.88 340.042 89.552ZM356.851 102.096C344.179 102.096 338.099 111.184 338.099 120.464C338.099 129.744 344.051 138.704 356.723 138.704C369.331 138.704 375.539 129.616 375.539 120.336C375.539 111.056 369.458 102.096 356.851 102.096ZM356.787 135.504C350.899 135.504 349.299 127.312 349.299 120.08C349.299 112.912 350.963 105.296 356.787 105.296C362.675 105.296 364.339 112.976 364.339 120.208C364.339 127.376 362.675 135.504 356.787 135.504ZM395.815 136.4C394.023 136.4 392.615 134.992 392.615 133.2V84.944L378.215 87.248L378.471 88.784C380.007 88.592 381.415 89.744 381.415 91.28V133.2C381.415 134.992 380.007 136.4 378.215 136.4V138H395.815V136.4ZM412.618 91.6C412.618 95.12 409.738 98 406.218 98C402.698 98 399.818 95.12 399.818 91.6C399.818 88.08 402.698 85.2 406.218 85.2C409.738 85.2 412.618 88.08 412.618 91.6ZM412.49 102.544L398.09 104.848L398.346 106.384C399.882 106.192 401.29 107.344 401.29 108.88V133.2C401.29 134.992 399.882 136.4 398.09 136.4V138H415.69V136.4C413.898 136.4 412.49 134.992 412.49 133.2V102.544ZM437.101 102.096C424.429 102.096 418.349 111.184 418.349 120.464C418.349 129.744 424.301 138.704 436.973 138.704C449.581 138.704 455.789 129.616 455.789 120.336C455.789 111.056 449.708 102.096 437.101 102.096ZM437.037 135.504C431.149 135.504 429.549 127.312 429.549 120.08C429.549 112.912 431.213 105.296 437.037 105.296C442.925 105.296 444.589 112.976 444.589 120.208C444.589 127.376 442.925 135.504 437.037 135.504Z" fill="#C2685B"/>
</svg>
