<svg width="516" height="122" viewBox="0 0 516 122" fill="none" xmlns="http://www.w3.org/2000/svg">
<path d="M61.5405 71.0247C59.068 77.6709 51.6915 87.4769 42.2377 87.1126C32.2037 86.7649 25.7415 76.032 23.7455 63.0809C21.5521 48.849 28.54 39.8313 35.4425 38.7675C44.7645 37.3308 51.2471 42.524 54.8571 52.2395L56.6581 52.1076C55.633 46.8747 54.1196 37.0547 53.1876 31.9531L46.9809 35.168C41.7309 33.7188 38.1507 33.1778 34.1658 33.7919C17.0764 36.3529 7.53406 52.9035 9.91391 68.3452C12.3925 84.4273 25.4182 95.6785 42.8524 92.9916C52.5301 91.5001 60.394 82.4932 62.5314 71.3091L61.5405 71.0247Z" fill="#C2685B"/>
<path d="M82.515 49.7967C69.9396 51.3586 65.0261 61.1267 66.17 70.336C67.3138 79.5452 74.3248 87.7033 86.9002 86.1413C99.412 84.5873 104.453 74.8034 103.309 65.5942C102.165 56.3849 95.0268 48.2427 82.515 49.7967ZM86.5693 82.9578C80.7262 83.6836 78.1286 75.7513 77.2372 68.5744C76.3537 61.4611 77.0663 53.698 82.8459 52.9802C88.689 52.2544 91.2869 59.6708 92.1783 66.8476C93.0618 73.961 92.4124 82.2321 86.5693 82.9578Z" fill="#C2685B"/>
<path d="M167.003 48.4345C166.836 46.5861 165.267 41.3303 158.702 41.9255C150.862 42.6363 146.277 50.1851 146.277 50.1851C145.924 46.297 142.703 43.3759 137.987 43.8035C130.147 44.5143 125.562 52.0632 125.562 52.0632L124.961 45.4343L110.827 49.0291L111.221 50.5358C112.733 50.2058 114.24 51.226 114.378 52.7557L116.574 76.9764C116.736 78.7611 115.461 80.2905 113.676 80.4523L113.821 82.0457L131.349 80.4566L131.204 78.8631C129.42 79.0249 127.89 77.7498 127.729 75.9651L125.85 55.2501C126.077 54.9083 128.285 50.9166 131.408 50.6334C133.512 50.4427 135.174 51.77 135.319 53.3635L137.289 75.0983C137.451 76.883 136.176 78.4124 134.391 78.5742L134.536 80.1677L152.064 78.5785L151.919 76.9851C150.135 77.1469 148.605 75.8717 148.444 74.0871L146.566 53.372C146.792 53.0302 149 49.0385 152.123 48.7553C154.227 48.5646 155.889 49.8919 156.034 51.4854L158.779 81.7612C142.502 85.8074 134.622 108.05 121.822 108.632C115.616 108.937 112.465 104.661 111.62 100.303C110.903 96.6408 113.706 101.335 119.57 100.803C123.33 100.462 126.425 97.0328 126.085 93.2723C125.177 83.2653 110.448 84.5364 105.984 94.1307C104.529 97.2187 104.209 100.782 105.025 104.114C107.486 114.237 117.653 120.77 129.318 114.764C137.854 110.391 148.596 89.9461 159.027 83.7951C160.058 87.3646 163.4 92.3311 170.156 91.7186C177.55 91.0483 180.981 86.3673 180.739 83.6903C180.473 80.7583 174.273 79.7138 169.939 80.1068L167.003 48.4345ZM175.628 85.4389C175.071 86.3891 171.629 88.1149 170.147 81.6945C176.492 82.2117 176.132 84.6221 175.628 85.4389Z" fill="#C2685B"/>
<path d="M191.509 29.2045C191.732 32.7174 189.04 35.7741 185.527 35.9972C182.014 36.2203 178.958 33.5286 178.734 30.0157C178.511 26.5028 181.203 23.446 184.716 23.223C188.229 22.9999 191.286 25.6916 191.509 29.2045ZM192.075 40.1346L177.85 43.3466L178.202 44.8633C179.723 44.5743 181.201 45.6348 181.299 47.1677L182.84 71.4388C182.954 73.2272 181.638 74.7216 179.849 74.8352L179.951 76.4319L197.515 75.3165L197.414 73.7197C195.625 73.8333 194.131 72.5174 194.017 70.729L192.075 40.1346Z" fill="#C2685B"/>
<path d="M230.724 37.7788C222.859 38.1139 217.918 45.4349 217.918 45.4349L217.635 38.7849L203.346 41.6999L203.667 43.2236C205.521 43.1446 206.652 44.1214 206.715 45.592L207.75 69.89C207.826 71.6803 206.48 73.147 204.689 73.2233L204.757 74.8219L222.341 74.0726L222.273 72.474C220.483 72.5503 219.016 71.2035 218.94 69.4131L218.054 48.632C218.296 48.3014 220.693 44.4198 223.827 44.2863C225.937 44.1964 227.534 45.6017 227.602 47.2002L228.531 69.0044C228.607 70.7948 227.261 72.2615 225.47 72.3378L225.538 73.9363L243.122 73.187L243.054 71.5885C241.264 71.6648 239.797 70.318 239.721 68.5276L238.705 44.6773C238.626 42.8229 237.31 37.4981 230.724 37.7788Z" fill="#C2685B"/>
<path d="M297.245 23.2642C291.805 23.3506 278.067 28.8815 271.413 37.1162C270 36.8186 268.463 36.715 266.799 36.7415C255.984 36.9133 250.902 43.3308 251.005 49.858C251.078 54.4654 253.644 58.8412 258.928 61.0615C255.506 63.2282 252.031 66.0997 251.634 69.3064C251.351 71.6152 252.53 73.3247 254.148 74.4512C257.577 76.765 262.759 76.5547 267.177 76.6765C271.917 76.8572 278.241 76.0527 278.631 80.463C278.869 83.3396 274.463 88.0822 267.424 88.194C258.529 88.3353 258.02 84.5029 258.947 82.3759C259.193 81.732 259.376 81.217 259.43 80.576C259.521 78.2063 257.761 76.25 255.392 76.1596C252.124 75.9555 250.003 79.4456 251.024 83.2699C251.709 86.0754 255.096 89.798 267.063 89.6079C277.237 89.4463 286.708 85.2633 286.125 76.7595C285.777 71.0043 281.453 68.7687 274.854 68.3615C271.714 68.1553 266.597 68.3646 262.171 67.7309C260.567 67.5003 257.081 65.6355 262.336 62.0315C263.813 62.3281 265.351 62.4317 267.079 62.4042C277.893 62.2324 283.04 55.8139 282.936 49.2867C282.858 44.3593 279.839 39.6707 273.791 37.7185C274.608 36.7454 275.554 35.8343 276.501 35.0511C285.532 27.3547 291.959 33.0133 297.974 32.9178C301.11 32.868 303.774 31.3535 303.722 28.0899C303.692 26.1701 302.172 23.1859 297.245 23.2642ZM267.156 59.2026C263.7 59.2575 262.296 55.5033 262.202 49.5521C262.108 43.6648 263.394 39.9959 266.85 39.941C270.305 39.8862 271.708 43.5763 271.802 49.4636C271.896 55.4148 270.611 59.1477 267.156 59.2026Z" fill="#C2685B"/>
<path d="M348.102 19.7156C338.442 19.4523 331.384 24.702 330.241 33.7622C329.406 40.9101 333.288 46.4579 340.975 51.021C351.058 56.9299 355.459 62.2358 354.416 69.9543C353.541 76.2048 347.331 80.9013 340.503 80.075C332.973 79.1655 331.779 73.6269 333.525 70.6654C334.67 68.5838 337.869 68.671 338.439 64.2048C338.945 59.737 335.736 55.2959 330.682 55.1581C325.628 55.0204 322.117 59.3423 321.96 65.1002C321.557 75.205 332.43 84.9769 344.463 85.1127C355.472 85.2207 366.474 78.542 367.89 66.5441C368.727 59.3323 366.473 52.7404 356.92 46.2057C348.938 40.7382 341.158 37.2609 341.977 30.6888C342.561 25.7109 346.217 23.1215 349.991 23.2244C356.645 23.4057 352.311 27.3851 352.137 31.4139C351.995 34.2911 354.104 36.7815 356.974 37.1798C360.418 37.6578 363.045 35.2325 363.459 31.7865C364.234 24.5089 356.419 19.9423 348.102 19.7156Z" fill="#C2685B"/>
<path d="M394.128 38.2033C381.476 37.5014 374.902 46.2386 374.388 55.5044C373.874 64.7701 379.32 74.0461 391.973 74.748C404.561 75.4463 411.263 66.7161 411.777 57.4504C412.291 48.1846 406.717 38.9016 394.128 38.2033ZM392.214 71.5564C386.335 71.2303 385.191 62.9622 385.592 55.7413C385.989 48.5844 388.072 41.0722 393.887 41.3948C399.766 41.7209 401.002 49.4813 400.601 56.7022C400.204 63.8592 398.093 71.8826 392.214 71.5564Z" fill="#C2685B"/>
<path d="M438.802 42.4194C426.173 41.3762 419.365 49.9328 418.601 59.1813C417.838 68.4299 423.032 77.8494 435.661 78.8926C448.226 79.9305 455.161 71.3844 455.925 62.1359C456.689 52.8874 451.367 43.4573 438.802 42.4194ZM435.988 75.7087C430.12 75.224 429.2 66.9281 429.795 59.7206C430.385 52.577 432.67 45.1238 438.475 45.6032C444.343 46.0879 445.369 53.8788 444.773 61.0863C444.183 68.23 441.856 76.1934 435.988 75.7087Z" fill="#C2685B"/>
<path d="M509.089 95.3411C510.788 92.1798 509.32 87.9622 505.884 87.5849C503.594 87.3333 501.476 89.0322 501.224 91.3224C501.155 91.9586 501.226 92.4815 501.404 93.2092C501.801 94.8625 501.556 96.5096 499.648 96.3C496.339 95.9366 496.603 91.7805 496.966 88.4724L500.551 55.8367C500.754 53.9918 500.259 48.5291 493.707 47.8093C485.882 46.9498 479.889 53.4383 479.889 53.4383L480.616 46.8221L466.051 47.54L466.138 49.0947C467.685 49.0716 468.959 50.3704 468.791 51.8973L466.136 76.0718C465.94 77.8531 464.387 79.099 462.606 78.9033L462.431 80.4937L479.926 82.4155L480.1 80.8251C478.319 80.6294 477.073 79.0761 477.269 77.2948L479.54 56.6192C479.829 56.329 482.786 52.8551 485.904 53.1975C488.003 53.4282 489.369 55.0591 489.194 56.6495L486.148 84.3867C485.211 92.9114 489.261 98.2495 498.994 99.3186C504.72 99.9476 507.841 97.9082 509.089 95.3411Z" fill="#C2685B"/>
</svg>
