<svg width="246" height="63" viewBox="0 0 246 63" fill="none" xmlns="http://www.w3.org/2000/svg">
<path d="M43.5941 0.615999C38.7461 0.615999 35.6261 2.776 35.6261 6.568C35.6261 9.736 38.6021 12.232 41.9141 11.368C43.5461 10.888 44.8901 9.592 45.3221 7.96C45.8501 6.04 46.8581 2.392 49.6421 5.17599C51.6101 7.144 52.2341 9.736 51.2261 12.712C49.6901 17.224 45.1781 21.448 39.2261 21.448C33.1301 21.448 21.2261 15.688 11.9621 17.32C4.23412 18.712 1.45012 24.136 1.16212 27.784C0.682125 33.928 4.47412 40.312 12.2021 40.312C17.6261 40.312 20.3141 37.24 20.2181 34.216C20.2181 31.912 18.3461 30.088 16.0421 30.136C13.8341 30.184 12.0581 32.056 12.0581 34.312C12.1061 35.704 12.7781 39.256 10.0421 38.824C5.57812 38.152 2.93812 32.2 4.57012 27.736C7.11413 20.776 14.7461 21.208 21.3701 22.696V55C21.3701 57.64 19.2101 59.8 16.5701 59.8V61H35.7701V59.8C33.1301 59.8 30.9701 57.64 30.9701 55V43.48H35.8181C38.4581 43.48 40.6181 45.64 40.6181 48.28H41.8181V35.8H40.6181C40.6181 38.44 38.4581 40.6 35.8181 40.6H30.9701V25.24C38.8421 27.016 48.0101 26.968 53.0021 18.568C57.1781 11.512 53.7701 0.615999 43.5941 0.615999ZM59.4045 34.072C51.4365 34.072 45.9645 40.648 45.9645 48.088C45.9645 55.816 51.5325 61.528 59.1645 61.528C63.8685 61.528 68.2365 58.36 70.0125 53.272L69.5805 53.08C67.9485 56.056 65.3085 57.016 62.6205 57.112C57.5325 57.304 54.4125 52.792 54.4125 46.6H70.7325C70.9245 39.4 66.3645 34.072 59.4045 34.072ZM54.5565 44.68C54.5565 39.736 56.6205 36.52 59.2125 36.52C61.8045 36.52 63.8685 39.736 63.8685 44.68H54.5565ZM86.4983 34.072C78.5303 34.072 73.0583 40.648 73.0583 48.088C73.0583 55.816 78.6263 61.528 86.2583 61.528C90.9623 61.528 95.3303 58.36 97.1063 53.272L96.6743 53.08C95.0423 56.056 92.4023 57.016 89.7143 57.112C84.6263 57.304 81.5063 52.792 81.5063 46.6H97.8263C98.0183 39.4 93.4583 34.072 86.4983 34.072ZM81.6503 44.68C81.6503 39.736 83.7143 36.52 86.3063 36.52C88.8983 36.52 90.9623 39.736 90.9623 44.68H81.6503ZM127.416 59.8C126.072 59.8 125.016 58.744 125.016 57.4V21.208L114.216 22.936L114.408 24.088C115.56 23.944 116.616 24.808 116.616 25.96V36.424C115.512 35.176 113.784 34.024 111.144 34.024C102.744 34.024 100.344 43.768 100.344 49.528C100.344 54.136 102.36 61.528 107.304 61.528C111.96 61.528 115.368 58.408 116.616 57.016V61H127.416V59.8ZM112.68 57.064C106.344 57.064 107.544 37 113.88 37C116.04 37 116.424 41.128 116.616 42.04V54.808C115.848 55.672 114.36 57.064 112.68 57.064ZM149.321 34.072C144.617 34.072 141.161 37.336 139.961 38.632V21.208L129.161 22.936L129.353 24.088C130.505 23.944 131.561 24.808 131.561 25.96V57.496C131.561 58.648 130.505 59.56 129.353 59.368L129.161 60.568L133.913 59.8C135.161 60.184 140.441 62.104 145.481 61.48C154.121 60.424 156.281 51.832 156.281 46.072C156.281 41.512 154.265 34.072 149.321 34.072ZM142.745 59.224C139.913 59.224 139.961 56.68 139.961 56.68V40.888C140.681 40.024 142.217 38.536 143.945 38.536C150.281 38.536 149.081 59.224 142.745 59.224ZM187.402 55.096C185.962 58.024 182.458 59.56 182.458 52.696V44.632C182.458 40.84 181.21 37.912 178.618 36.232C172.522 32.296 161.674 33.976 159.994 40.264C159.61 41.656 160.042 43 160.57 43.768C161.29 44.776 162.634 45.4 163.93 45.208C165.658 44.92 166.81 43.288 166.522 41.56C166.426 41.08 166.186 40.744 165.994 40.264C164.122 35.368 174.058 34.168 174.058 42.376V45.976C170.41 47.128 158.794 47.8 158.794 55.144C158.794 59.128 161.338 61.576 165.754 61.576C169.306 61.576 171.898 59.656 174.25 56.824C174.922 59.56 177.13 61.624 180.106 61.624C184.378 61.624 186.634 59.512 187.642 55.192L187.402 55.096ZM170.842 57.208C168.49 57.496 167.194 55.864 167.194 53.608C167.194 51.208 169.93 49.576 174.058 47.704V54.952C172.858 56.248 171.658 57.112 170.842 57.208ZM205.824 57.112C200.736 57.304 197.616 52.792 197.616 46.6C197.616 39.736 201.408 37.528 203.136 36.904C205.92 35.848 209.424 37.048 207.84 39.688C207.552 40.168 207.312 40.504 207.216 40.984C206.832 42.664 207.888 44.392 209.568 44.776C210.864 45.064 212.112 44.488 212.88 43.528C213.456 42.808 214.032 41.32 213.744 39.976C213.024 36.232 209.184 33.832 202.608 34.12C194.64 34.456 189.168 40.648 189.168 48.088C189.168 55.816 194.736 61.528 202.368 61.528C207.072 61.528 211.44 58.408 213.216 53.272L212.784 53.08C211.152 56.056 208.512 57.016 205.824 57.112ZM233.067 41.992C234.363 40.312 235.515 38.824 236.379 37.672C237.387 36.376 239.643 35.32 242.235 35.272V34.072H232.059V35.272C235.659 35.368 235.467 36.376 234.459 37.672L226.683 47.752V21.88C226.683 21.448 226.539 21.208 226.251 21.208C225.243 21.208 221.115 23.848 217.611 23.848C213.099 23.848 203.835 19.48 197.403 19.48C195.723 19.48 193.467 19.672 191.979 21.448C191.547 21.976 191.259 22.696 191.259 23.56C191.259 25.528 192.843 26.92 194.811 26.92C196.683 26.92 197.931 25 200.619 24.088C204.315 22.792 209.019 23.272 211.755 24.04C216.171 25.336 217.563 27.16 217.947 29.032C218.427 31.096 218.235 32.44 218.283 57.4C218.283 58.744 217.227 59.8 215.883 59.8V61H229.083V59.8C227.739 59.8 226.683 58.744 226.683 57.4V50.2C227.211 49.576 227.739 48.856 228.267 48.184L233.643 57.4C234.411 58.696 233.883 59.752 232.587 59.8V61H245.835V59.8C243.915 59.752 242.811 58.696 242.043 57.4L233.067 41.992Z" fill="#44312E"/>
</svg>
