<svg width="1440" height="566" viewBox="0 0 1440 566" fill="none" xmlns="http://www.w3.org/2000/svg">
<mask id="mask0_390_429" style="mask-type:alpha" maskUnits="userSpaceOnUse" x="0" y="0" width="1440" height="566">
<rect width="1440" height="566" transform="matrix(-1 0 0 1 1440 0)" fill="#D9D9D9"/>
</mask>
<g mask="url(#mask0_390_429)">
<g filter="url(#filter0_d_390_429)">
<path fill-rule="evenodd" clip-rule="evenodd" d="M-620.087 1187.01C-554.79 1509.33 -154.642 1587.25 134.88 1743.23C404.012 1888.22 664.588 2128.69 955.921 2036.06C1259.63 1939.5 1394.72 1609.38 1500.95 1308.91C1614.13 988.74 1887.05 229.72 1635.17 142.169C1383.29 54.619 955.393 185.616 632.17 163.104C308.947 140.591 -205.209 43.1104 -421.303 221.679C-680.545 435.904 -686.862 857.403 -620.087 1187.01Z" fill="#DE9C65"/>
</g>
<g filter="url(#filter1_d_390_429)">
<path fill-rule="evenodd" clip-rule="evenodd" d="M-616.664 1273.9C-542.468 1594.29 -140.316 1661.11 153.414 1809.01C426.457 1946.49 693.59 2179.65 982.248 2079C1283.17 1974.07 1409.07 1640.33 1506.93 1337.03C1611.21 1013.85 1863.01 247.567 1608.8 167.024C1354.6 86.4803 930.488 229.274 606.765 215.719C283.043 202.164 -233.615 118.956 -444.682 303.439C-697.894 524.759 -692.538 946.272 -616.664 1273.9Z" fill="#F0CBAB"/>
</g>
<g filter="url(#filter2_d_390_429)">
<path fill-rule="evenodd" clip-rule="evenodd" d="M-625.289 1201.15C-573.518 1525.91 -176.977 1620.49 105.774 1788.43C368.612 1944.54 618.91 2195.69 913.86 2115.32C1221.34 2031.54 1370.11 1707.35 1488.8 1411.58C1615.27 1096.42 1919.66 349.468 1671.66 251.468C1423.66 153.468 990.663 266.468 668.663 230.468C346.663 194.468 -162.969 75.5849 -386.337 244.967C-654.305 448.171 -678.231 869.038 -625.289 1201.15Z" fill="#FFF9F4"/>
</g>
</g>
<defs>
<filter id="filter0_d_390_429" x="-705.858" y="61.6567" width="2494.51" height="2045.07" filterUnits="userSpaceOnUse" color-interpolation-filters="sRGB">
<feFlood flood-opacity="0" result="BackgroundImageFix"/>
<feColorMatrix in="SourceAlpha" type="matrix" values="0 0 0 0 0 0 0 0 0 0 0 0 0 0 0 0 0 0 127 0" result="hardAlpha"/>
<feOffset/>
<feGaussianBlur stdDeviation="25"/>
<feComposite in2="hardAlpha" operator="out"/>
<feColorMatrix type="matrix" values="0 0 0 0 0.133333 0 0 0 0 0.2 0 0 0 0 0.329412 0 0 0 0.5 0"/>
<feBlend mode="multiply" in2="BackgroundImageFix" result="effect1_dropShadow_390_429"/>
<feBlend mode="normal" in="SourceGraphic" in2="effect1_dropShadow_390_429" result="shape"/>
</filter>
<filter id="filter1_d_390_429" x="-712.42" y="92.2483" width="2481.25" height="2061.25" filterUnits="userSpaceOnUse" color-interpolation-filters="sRGB">
<feFlood flood-opacity="0" result="BackgroundImageFix"/>
<feColorMatrix in="SourceAlpha" type="matrix" values="0 0 0 0 0 0 0 0 0 0 0 0 0 0 0 0 0 0 127 0" result="hardAlpha"/>
<feOffset/>
<feGaussianBlur stdDeviation="25"/>
<feComposite in2="hardAlpha" operator="out"/>
<feColorMatrix type="matrix" values="0 0 0 0 0.133333 0 0 0 0 0.2 0 0 0 0 0.329412 0 0 0 0.5 0"/>
<feBlend mode="multiply" in2="BackgroundImageFix" result="effect1_dropShadow_390_429"/>
<feBlend mode="normal" in="SourceGraphic" in2="effect1_dropShadow_390_429" result="shape"/>
</filter>
<filter id="filter2_d_390_429" x="-698.074" y="106.304" width="2514.2" height="2074.5" filterUnits="userSpaceOnUse" color-interpolation-filters="sRGB">
<feFlood flood-opacity="0" result="BackgroundImageFix"/>
<feColorMatrix in="SourceAlpha" type="matrix" values="0 0 0 0 0 0 0 0 0 0 0 0 0 0 0 0 0 0 127 0" result="hardAlpha"/>
<feOffset/>
<feGaussianBlur stdDeviation="25"/>
<feComposite in2="hardAlpha" operator="out"/>
<feColorMatrix type="matrix" values="0 0 0 0 0.133333 0 0 0 0 0.2 0 0 0 0 0.329412 0 0 0 0.5 0"/>
<feBlend mode="multiply" in2="BackgroundImageFix" result="effect1_dropShadow_390_429"/>
<feBlend mode="normal" in="SourceGraphic" in2="effect1_dropShadow_390_429" result="shape"/>
</filter>
</defs>
</svg>
