<svg width="1440" height="830" viewBox="0 0 1440 830" fill="none" xmlns="http://www.w3.org/2000/svg">
<mask id="mask0_390_429" style="mask-type:alpha" maskUnits="userSpaceOnUse" x="0" y="0" width="1440" height="830">
<rect width="1440" height="830" transform="matrix(-1 0 0 1 1440 0)" fill="#D9D9D9"/>
</mask>
<g mask="url(#mask0_390_429)">
<g filter="url(#filter0_d_390_429)">
<path fill-rule="evenodd" clip-rule="evenodd" d="M-620.087 1139.01C-554.79 1461.33 -154.642 1539.25 134.88 1695.23C404.012 1840.22 664.588 2080.69 955.921 1988.06C1259.63 1891.5 1394.72 1561.38 1500.95 1260.91C1614.13 940.74 1887.05 181.72 1635.17 94.1694C1383.29 6.61902 955.393 137.616 632.17 115.104C308.947 92.5915 -205.209 -4.88962 -421.303 173.679C-680.545 387.904 -686.862 809.403 -620.087 1139.01Z" fill="#DE9C65"/>
</g>
<g filter="url(#filter1_d_390_429)">
<path fill-rule="evenodd" clip-rule="evenodd" d="M-616.664 1225.9C-542.468 1546.29 -140.316 1613.11 153.414 1761.01C426.457 1898.49 693.59 2131.65 982.248 2031C1283.17 1926.07 1409.07 1592.33 1506.93 1289.03C1611.21 965.852 1863.01 199.567 1608.8 119.024C1354.6 38.4803 930.487 181.274 606.765 167.719C283.043 154.164 -233.615 70.9558 -444.682 255.439C-697.894 476.759 -692.538 898.272 -616.664 1225.9Z" fill="#F0CBAB"/>
</g>
<g filter="url(#filter2_d_390_429)">
<path fill-rule="evenodd" clip-rule="evenodd" d="M-625.289 1153.15C-573.518 1477.91 -176.977 1572.49 105.774 1740.43C368.612 1896.54 618.91 2147.69 913.86 2067.32C1221.34 1983.54 1370.11 1659.35 1488.8 1363.58C1615.27 1048.42 1919.66 301.468 1671.66 203.468C1423.66 105.468 990.663 218.468 668.663 182.468C346.663 146.468 -162.969 27.5849 -386.337 196.967C-654.305 400.171 -678.231 821.038 -625.289 1153.15Z" fill="#FFF9F4"/>
</g>
</g>
<defs>
<filter id="filter0_d_390_429" x="-705.858" y="13.6567" width="2494.51" height="2045.07" filterUnits="userSpaceOnUse" color-interpolation-filters="sRGB">
<feFlood flood-opacity="0" result="BackgroundImageFix"/>
<feColorMatrix in="SourceAlpha" type="matrix" values="0 0 0 0 0 0 0 0 0 0 0 0 0 0 0 0 0 0 127 0" result="hardAlpha"/>
<feOffset/>
<feGaussianBlur stdDeviation="25"/>
<feComposite in2="hardAlpha" operator="out"/>
<feColorMatrix type="matrix" values="0 0 0 0 0.133333 0 0 0 0 0.2 0 0 0 0 0.329412 0 0 0 0.5 0"/>
<feBlend mode="multiply" in2="BackgroundImageFix" result="effect1_dropShadow_390_429"/>
<feBlend mode="normal" in="SourceGraphic" in2="effect1_dropShadow_390_429" result="shape"/>
</filter>
<filter id="filter1_d_390_429" x="-712.42" y="44.2483" width="2481.25" height="2061.25" filterUnits="userSpaceOnUse" color-interpolation-filters="sRGB">
<feFlood flood-opacity="0" result="BackgroundImageFix"/>
<feColorMatrix in="SourceAlpha" type="matrix" values="0 0 0 0 0 0 0 0 0 0 0 0 0 0 0 0 0 0 127 0" result="hardAlpha"/>
<feOffset/>
<feGaussianBlur stdDeviation="25"/>
<feComposite in2="hardAlpha" operator="out"/>
<feColorMatrix type="matrix" values="0 0 0 0 0.133333 0 0 0 0 0.2 0 0 0 0 0.329412 0 0 0 0.5 0"/>
<feBlend mode="multiply" in2="BackgroundImageFix" result="effect1_dropShadow_390_429"/>
<feBlend mode="normal" in="SourceGraphic" in2="effect1_dropShadow_390_429" result="shape"/>
</filter>
<filter id="filter2_d_390_429" x="-698.074" y="58.304" width="2514.2" height="2074.5" filterUnits="userSpaceOnUse" color-interpolation-filters="sRGB">
<feFlood flood-opacity="0" result="BackgroundImageFix"/>
<feColorMatrix in="SourceAlpha" type="matrix" values="0 0 0 0 0 0 0 0 0 0 0 0 0 0 0 0 0 0 127 0" result="hardAlpha"/>
<feOffset/>
<feGaussianBlur stdDeviation="25"/>
<feComposite in2="hardAlpha" operator="out"/>
<feColorMatrix type="matrix" values="0 0 0 0 0.133333 0 0 0 0 0.2 0 0 0 0 0.329412 0 0 0 0.5 0"/>
<feBlend mode="multiply" in2="BackgroundImageFix" result="effect1_dropShadow_390_429"/>
<feBlend mode="normal" in="SourceGraphic" in2="effect1_dropShadow_390_429" result="shape"/>
</filter>
</defs>
</svg>
