<svg width="1440" height="481" viewBox="0 0 1440 481" fill="none" xmlns="http://www.w3.org/2000/svg">
<mask id="mask0_315_345" style="mask-type:alpha" maskUnits="userSpaceOnUse" x="0" y="0" width="1440" height="481">
<rect width="1440" height="481" fill="#D9D9D9"/>
</mask>
<g mask="url(#mask0_315_345)">
<g filter="url(#filter0_d_315_345)">
<path fill-rule="evenodd" clip-rule="evenodd" d="M2060.09 1102.01C1994.79 1424.33 1594.64 1502.25 1305.12 1658.23C1035.99 1803.22 775.412 2043.69 484.079 1951.06C180.366 1854.5 45.2772 1524.38 -60.946 1223.91C-174.133 903.74 -447.051 144.72 -195.172 57.1694C56.7071 -30.381 484.607 100.616 807.83 78.1035C1131.05 55.5915 1645.21 -41.8896 1861.3 136.679C2120.55 350.904 2126.86 772.403 2060.09 1102.01Z" fill="#DE9C65"/>
</g>
<g filter="url(#filter1_d_315_345)">
<path fill-rule="evenodd" clip-rule="evenodd" d="M2056.66 1188.9C1982.47 1509.29 1580.32 1576.11 1286.59 1724.01C1013.54 1861.49 746.41 2094.65 457.752 1994C156.829 1889.07 30.9322 1555.33 -66.9314 1252.03C-171.211 928.852 -423.009 162.567 -168.803 82.0235C85.4032 1.48031 509.513 144.274 833.235 130.719C1156.96 117.164 1673.61 33.9558 1884.68 218.439C2137.89 439.759 2132.54 861.272 2056.66 1188.9Z" fill="#F0CBAB"/>
</g>
<g filter="url(#filter2_d_315_345)">
<path fill-rule="evenodd" clip-rule="evenodd" d="M2065.29 1116.15C2013.52 1440.91 1616.98 1535.49 1334.23 1703.43C1071.39 1859.54 821.09 2110.69 526.14 2030.32C218.657 1946.54 69.8902 1622.35 -48.797 1326.58C-175.265 1011.42 -479.664 264.468 -231.664 166.468C16.3361 68.4676 449.337 181.468 771.337 145.468C1093.34 109.468 1602.97 -9.41514 1826.34 159.967C2094.31 363.171 2118.23 784.038 2065.29 1116.15Z" fill="#FFF9F4"/>
</g>
</g>
<defs>
<filter id="filter0_d_315_345" x="-348.654" y="-23.3433" width="2494.51" height="2045.07" filterUnits="userSpaceOnUse" color-interpolation-filters="sRGB">
<feFlood flood-opacity="0" result="BackgroundImageFix"/>
<feColorMatrix in="SourceAlpha" type="matrix" values="0 0 0 0 0 0 0 0 0 0 0 0 0 0 0 0 0 0 127 0" result="hardAlpha"/>
<feOffset/>
<feGaussianBlur stdDeviation="25"/>
<feComposite in2="hardAlpha" operator="out"/>
<feColorMatrix type="matrix" values="0 0 0 0 0.133333 0 0 0 0 0.2 0 0 0 0 0.329412 0 0 0 0.5 0"/>
<feBlend mode="multiply" in2="BackgroundImageFix" result="effect1_dropShadow_315_345"/>
<feBlend mode="normal" in="SourceGraphic" in2="effect1_dropShadow_315_345" result="shape"/>
</filter>
<filter id="filter1_d_315_345" x="-328.83" y="7.24829" width="2481.25" height="2061.25" filterUnits="userSpaceOnUse" color-interpolation-filters="sRGB">
<feFlood flood-opacity="0" result="BackgroundImageFix"/>
<feColorMatrix in="SourceAlpha" type="matrix" values="0 0 0 0 0 0 0 0 0 0 0 0 0 0 0 0 0 0 127 0" result="hardAlpha"/>
<feOffset/>
<feGaussianBlur stdDeviation="25"/>
<feComposite in2="hardAlpha" operator="out"/>
<feColorMatrix type="matrix" values="0 0 0 0 0.133333 0 0 0 0 0.2 0 0 0 0 0.329412 0 0 0 0.5 0"/>
<feBlend mode="multiply" in2="BackgroundImageFix" result="effect1_dropShadow_315_345"/>
<feBlend mode="normal" in="SourceGraphic" in2="effect1_dropShadow_315_345" result="shape"/>
</filter>
<filter id="filter2_d_315_345" x="-376.128" y="21.304" width="2514.2" height="2074.5" filterUnits="userSpaceOnUse" color-interpolation-filters="sRGB">
<feFlood flood-opacity="0" result="BackgroundImageFix"/>
<feColorMatrix in="SourceAlpha" type="matrix" values="0 0 0 0 0 0 0 0 0 0 0 0 0 0 0 0 0 0 127 0" result="hardAlpha"/>
<feOffset/>
<feGaussianBlur stdDeviation="25"/>
<feComposite in2="hardAlpha" operator="out"/>
<feColorMatrix type="matrix" values="0 0 0 0 0.133333 0 0 0 0 0.2 0 0 0 0 0.329412 0 0 0 0.5 0"/>
<feBlend mode="multiply" in2="BackgroundImageFix" result="effect1_dropShadow_315_345"/>
<feBlend mode="normal" in="SourceGraphic" in2="effect1_dropShadow_315_345" result="shape"/>
</filter>
</defs>
</svg>
