<svg width="67" height="21" viewBox="0 0 67 21" fill="none" xmlns="http://www.w3.org/2000/svg">
<path d="M23.74 -2.38419e-07H15.74V0.499999C16.84 0.499999 17.74 1.4 17.74 2.5V8.02H12V2.5C12 1.4 12.9 0.499999 14 0.499999V-2.38419e-07H6C0.64 -2.38419e-07 1.1 6 4.84 6C5.82 6 6.86 5.52 6.86 4.46C6.86 3.74 6.28 3.18 5.58 3.18C5.12 3.18 4.74 3.42 4.5 3.78C4.16 4.26 3.72 4.34 3.6 3.5C3.42 2.24 3.84 0.46 6 0.499999C7.1 0.499999 8 1.4 8 2.5V13.5C8 14.6 7.1 15.5 6 15.5V16H14V15.5C12.9 15.5 12 14.6 12 13.5V9.02H17.74V13.5C17.74 14.6 16.84 15.5 15.74 15.5V16H23.74V15.5C22.64 15.5 21.74 14.6 21.74 13.5V2.5C21.74 1.4 22.64 0.499999 23.74 0.499999V-2.38419e-07ZM30.2463 4.78C26.2863 4.78 24.3863 7.62 24.3863 10.52C24.3863 13.42 26.2463 16.22 30.2063 16.22C34.1463 16.22 36.0863 13.38 36.0863 10.48C36.0863 7.58 34.1862 4.78 30.2463 4.78ZM30.2263 15.22C28.3863 15.22 27.8863 12.66 27.8863 10.4C27.8863 8.16 28.4063 5.78 30.2263 5.78C32.0663 5.78 32.5863 8.18 32.5863 10.44C32.5863 12.68 32.0663 15.22 30.2263 15.22ZM58.4225 19.02C58.8225 18.06 58.3025 16.72 57.1625 16.72C56.4425 16.72 55.8425 17.32 55.8425 18.04C55.8425 18.24 55.8825 18.4 55.9625 18.62C56.1425 19.12 56.1225 19.64 55.5225 19.64C54.4825 19.64 54.4225 18.34 54.4225 17.3V7.04C54.4225 6.46 54.0825 4.78 52.0225 4.78C49.5625 4.78 47.9225 7 47.9225 7C47.9225 6.18 47.2625 4.78 45.5225 4.78C43.0625 4.78 41.4225 7 41.4225 7V4.92L36.9225 5.64L37.0025 6.12C37.4825 6.06 37.9225 6.42 37.9225 6.9V14.5C37.9225 15.06 37.4825 15.5 36.9225 15.5V16H42.4225V15.5C41.8625 15.5 41.4225 15.06 41.4225 14.5V8C41.5025 7.9 42.3025 6.72 43.2825 6.72C43.9425 6.72 44.4225 7.18 44.4225 7.68V14.5C44.4225 15.06 43.9825 15.5 43.4225 15.5V16H48.9225V15.5C48.3625 15.5 47.9225 15.06 47.9225 14.5V8C48.0025 7.9 48.8025 6.72 49.7825 6.72C50.4425 6.72 50.9225 7.18 50.9225 7.68V16.4C50.9225 19.08 52.3625 20.6 55.4225 20.6C57.2225 20.6 58.1225 19.86 58.4225 19.02ZM61.998 4.78C58.678 4.78 56.398 7.52 56.398 10.62C56.398 13.84 58.718 16.22 61.898 16.22C63.858 16.22 65.678 14.9 66.418 12.78L66.238 12.7C65.558 13.94 64.458 14.34 63.338 14.38C61.218 14.46 59.918 12.58 59.918 10H66.718C66.798 7 64.898 4.78 61.998 4.78ZM59.978 9.2C59.978 7.14 60.838 5.8 61.918 5.8C62.998 5.8 63.858 7.14 63.858 9.2H59.978Z" fill="#44312E"/>
</svg>
