<svg width="66" height="22" viewBox="0 0 66 22" fill="none" xmlns="http://www.w3.org/2000/svg">
<path d="M11.6419 1H5.88188C0.521875 1 0.981875 7 4.72188 7C5.70188 7 6.74188 6.52 6.74188 5.46C6.74188 4.74 6.16188 4.18 5.46188 4.18C5.00188 4.18 4.62188 4.42 4.38188 4.78C4.04188 5.26 3.60188 5.34 3.48188 4.5C3.30188 3.24 3.72188 1.5 5.88188 1.5C7.28188 1.5 8.14188 2.5 8.26188 3.52C8.30188 3.92 7.90188 5 7.90188 5L4.08188 14.5C3.64188 15.6 2.34188 16.5 1.24187 16.5V17H6.44188V16.5C5.36188 16.48 4.84188 15.58 5.28188 14.5L6.68188 11.02H11.0819L12.2619 14.5C12.6419 15.6 12.0619 16.48 10.9619 16.5V17H18.9619V16.5C17.8419 16.5 16.6419 15.6 16.2619 14.5L11.6419 1ZM9.06188 5.14L10.7419 10.02H7.08188L9.06188 5.14ZM27.5647 5.78C25.6047 5.78 24.1647 7.14 23.6647 7.68V0.419999L19.1647 1.14L19.2447 1.62C19.7247 1.56 20.1647 1.92 20.1647 2.4V15.54C20.1647 16.02 19.7247 16.4 19.2447 16.32L19.1647 16.82L21.1447 16.5C21.6647 16.66 23.8647 17.46 25.9647 17.2C29.5647 16.76 30.4647 13.18 30.4647 10.78C30.4647 8.88 29.6247 5.78 27.5647 5.78ZM24.8247 16.26C23.6447 16.26 23.6647 15.2 23.6647 15.2V8.62C23.9647 8.26 24.6047 7.64 25.3247 7.64C27.9647 7.64 27.4647 16.26 24.8247 16.26ZM37.3517 5.78C33.3917 5.78 31.4917 8.62 31.4917 11.52C31.4917 14.42 33.3517 17.22 37.3117 17.22C41.2517 17.22 43.1917 14.38 43.1917 11.48C43.1917 8.58 41.2917 5.78 37.3517 5.78ZM37.3317 16.22C35.4917 16.22 34.9917 13.66 34.9917 11.4C34.9917 9.16 35.5117 6.78 37.3317 6.78C39.1717 6.78 39.6917 9.18 39.6917 11.44C39.6917 13.68 39.1717 16.22 37.3317 16.22ZM37.8517 10.82C38.0117 11 38.6717 11.28 38.6717 11.28C38.6717 11.28 38.0117 11.56 37.8517 11.74C37.6717 11.9 37.3917 12.56 37.3917 12.56C37.3917 12.56 37.1117 11.9 36.9317 11.74C36.7717 11.56 36.1117 11.28 36.1117 11.28C36.1117 11.28 36.7717 11 36.9317 10.82C37.1117 10.66 37.3917 10 37.3917 10C37.3917 10 37.6717 10.66 37.8517 10.82ZM56.028 16.5C55.468 16.5 55.028 16.06 55.028 15.5V5.8L50.528 6.52L50.608 7C51.088 6.94 51.528 7.3 51.528 7.78V13.78C51.448 13.88 50.648 15.06 49.668 15.06C49.008 15.06 48.528 14.6 48.528 14.1V5.8L44.028 6.52L44.108 7C44.588 6.94 45.028 7.3 45.028 7.78V14.74C45.028 15.76 45.368 17.24 47.428 17.24C49.888 17.24 51.528 14.78 51.528 14.78V15.5C51.528 16.06 51.088 16.5 50.528 16.5V17H56.028V16.5ZM65.5628 20.02C65.9628 19.06 65.4428 17.72 64.3028 17.72C63.5828 17.72 62.9828 18.32 62.9828 19.04C62.9828 19.24 63.0228 19.4 63.1028 19.62C63.2828 20.1 63.2628 20.64 62.6628 20.64C61.6228 20.64 61.5628 19.34 61.5628 18.3V6.58H64.5628V5.78H61.5628V1.5H61.0628C59.9428 4.24 58.0228 5.78 56.5628 5.78V6.58H58.0628V17.4C58.0628 20.08 59.5028 21.6 62.5628 21.6C64.3628 21.6 65.2628 20.86 65.5628 20.02Z" fill="#44312E"/>
</svg>
