<svg width="98" height="24" viewBox="0 0 98 24" fill="none" xmlns="http://www.w3.org/2000/svg">
<path d="M20.477 7.4C20.477 4.7 18.137 3 14.597 3H5.45703C0.0970311 3 0.557031 9 4.29703 9C5.27703 9 6.31703 8.52 6.31703 7.46C6.31703 6.74 5.73703 6.18 5.03703 6.18C4.57703 6.18 4.19703 6.42 3.95703 6.78C3.61703 7.26 3.17703 7.34 3.05703 6.5C2.87703 5.24 3.29703 3.46 5.45703 3.5C6.55703 3.5 7.45703 4.4 7.45703 5.5V16.5C7.45703 17.6 6.55703 18.5 5.45703 18.5V19H13.457V18.5C12.357 18.5 11.457 17.6 11.457 16.5V12.52C18.757 12.52 20.477 9.36 20.477 7.4ZM11.457 4.38C14.637 4.38 16.477 5.4 16.477 7.76C16.477 9.78 14.657 11.34 11.457 11.34V4.38ZM27.0275 7.78C23.0675 7.78 21.1675 10.62 21.1675 13.52C21.1675 16.42 23.0275 19.22 26.9875 19.22C30.9275 19.22 32.8675 16.38 32.8675 13.48C32.8675 10.58 30.9675 7.78 27.0275 7.78ZM27.0075 18.22C25.1675 18.22 24.6675 15.66 24.6675 13.4C24.6675 11.16 25.1875 8.78 27.0075 8.78C28.8475 8.78 29.3675 11.18 29.3675 13.44C29.3675 15.68 28.8475 18.22 27.0075 18.22ZM48.987 8.58H51.987V7.78H48.987V5.6C48.987 0.099999 39.887 0.88 39.887 5.42C39.887 6.44 40.327 7.32 40.667 7.86C39.707 8.16 38.807 8.98 38.067 9.9V7.92L33.567 8.64L33.647 9.12C34.127 9.06 34.567 9.42 34.567 9.9V17.5C34.567 18.06 34.127 18.5 33.567 18.5V19H39.067V18.5C38.507 18.5 38.067 18.06 38.067 17.5V11.4C39.207 9.8 41.167 8.02 40.787 9.44C40.487 10.48 41.027 11.32 41.987 11.32C42.907 11.32 43.387 10.54 43.367 9.72C43.367 9.38 43.287 9.02 43.107 8.7C42.647 7.9 42.167 8.08 41.707 7.36C41.347 6.8 41.127 6.18 41.127 5.48C41.127 1.36 47.727 1.36 47.727 4.94C47.727 6.84 45.907 7.78 43.987 7.78V8.58H45.487V16.56C45.487 18.02 46.827 19.22 48.327 19.22C50.527 19.22 51.567 17.66 51.987 15.86L51.867 15.82C51.287 17.04 50.627 17.36 50.047 17.36C48.867 17.36 48.987 15.86 48.987 14.54V8.58ZM62.0091 3.86C61.4291 2.34 57.9291 1.36 55.3691 3.02C54.2691 3.72 53.7691 4.98 53.7691 6.58V7.78H52.6691V8.58H53.7691V17.5C53.7691 18.06 53.3291 18.5 52.7691 18.5V19H58.2691V18.5C57.7091 18.5 57.2691 18.06 57.2691 17.5V8.58H59.2691V7.78H57.2691V5.58C57.2691 3.28 58.5891 3.08 59.1891 3.18C59.6691 3.26 59.7091 3.78 59.5491 4.26C59.4691 4.48 59.4091 4.64 59.4091 4.84C59.4091 5.56 60.0091 6.16 60.7291 6.16C61.8091 6.16 62.3891 4.9 62.0091 3.86ZM66.1291 7.78C62.1691 7.78 60.2691 10.62 60.2691 13.52C60.2691 16.42 62.1291 19.22 66.0891 19.22C70.0291 19.22 71.9691 16.38 71.9691 13.48C71.9691 10.58 70.0691 7.78 66.1291 7.78ZM66.1091 18.22C64.2691 18.22 63.7691 15.66 63.7691 13.4C63.7691 11.16 64.2891 8.78 66.1091 8.78C67.9491 8.78 68.4691 11.18 68.4691 13.44C68.4691 15.68 67.9491 18.22 66.1091 18.22ZM81.3053 22.02C81.7053 20.96 81.1253 19.72 80.0453 19.72C79.3253 19.72 78.7253 20.32 78.7253 21.04C78.7253 21.24 78.7653 21.4 78.8453 21.62C79.0253 22.12 79.0053 22.64 78.4053 22.64C77.3653 22.64 77.3053 21.34 77.3053 20.3V2.42L72.8053 3.14L72.8853 3.62C73.3653 3.56 73.8053 3.92 73.8053 4.4V19.4C73.8053 22.08 75.2453 23.6 78.3053 23.6C80.1053 23.6 81.0053 22.86 81.3053 22.02ZM82.553 3.58C82.873 3.92 84.153 4.46 84.153 4.46C84.153 4.46 82.873 5.02 82.553 5.36C82.213 5.68 81.653 6.96 81.653 6.96C81.653 6.96 81.093 5.68 80.773 5.36C80.453 5.02 79.153 4.46 79.153 4.46C79.153 4.46 80.453 3.92 80.773 3.58C81.093 3.26 81.653 1.96 81.653 1.96C81.653 1.96 82.213 3.26 82.553 3.58ZM83.653 7.92L79.153 8.64L79.233 9.12C79.713 9.06 80.153 9.42 80.153 9.9V17.5C80.153 18.06 79.713 18.5 79.153 18.5V19H84.653V18.5C84.093 18.5 83.653 18.06 83.653 17.5V7.92ZM91.2267 7.78C87.2667 7.78 85.3667 10.62 85.3667 13.52C85.3667 16.42 87.2267 19.22 91.1867 19.22C95.1267 19.22 97.0667 16.38 97.0667 13.48C97.0667 10.58 95.1667 7.78 91.2267 7.78ZM91.2067 18.22C89.3667 18.22 88.8667 15.66 88.8667 13.4C88.8667 11.16 89.3867 8.78 91.2067 8.78C93.0467 8.78 93.5667 11.18 93.5667 13.44C93.5667 15.68 93.0467 18.22 91.2067 18.22Z" fill="#44312E"/>
</svg>
